'use strict';

module.exports = [
    // Chopin, Waltz Opus 69 No. 2
    {
        "header": {
            "PPQ": 480,
            "bpm": 120,
            "timeSignature": [
                4,
                4
            ],
            "name": ""
        },
        "startTime": 0,
        "duration": 48.71041666666667,
        "tracks": [
            {
                "startTime": 1,
                "duration": 48.71041666666667,
                "length": 130,
                "notes": [
                    {
                        "name": "F#5",
                        "midi": 78,
                        "time": 1,
                        "velocity": 0.47244094488188976,
                        "duration": 0.7635416666666666
                    },
                    {
                        "name": "G5",
                        "midi": 79,
                        "time": 1.75,
                        "velocity": 0.49606299212598426,
                        "duration": 0.2531249999999998
                    },
                    {
                        "name": "F#5",
                        "midi": 78,
                        "time": 2,
                        "velocity": 0.49606299212598426,
                        "duration": 0.2531249999999998
                    },
                    {
                        "name": "C#5",
                        "midi": 73,
                        "time": 2.25,
                        "velocity": 0.41732283464566927,
                        "duration": 0.2531249999999998
                    },
                    {
                        "name": "D5",
                        "midi": 74,
                        "time": 2.5,
                        "velocity": 0.4881889763779528,
                        "duration": 0.2531249999999998
                    },
                    {
                        "name": "B4",
                        "midi": 71,
                        "time": 2.75,
                        "velocity": 0.47244094488188976,
                        "duration": 0.2531249999999994
                    },
                    {
                        "name": "A#4",
                        "midi": 70,
                        "time": 2.9999999999999996,
                        "velocity": 0.4409448818897638,
                        "duration": 0.9489583333333331
                    },
                    {
                        "name": "F#5",
                        "midi": 78,
                        "time": 3.9999999999999996,
                        "velocity": 0.6850393700787402,
                        "duration": 0.7635416666666663
                    },
                    {
                        "name": "G5",
                        "midi": 79,
                        "time": 4.749999999999999,
                        "velocity": 0.7244094488188977,
                        "duration": 0.2531249999999998
                    },
                    {
                        "name": "F#5",
                        "midi": 78,
                        "time": 4.999999999999999,
                        "velocity": 0.4566929133858268,
                        "duration": 0.2531249999999998
                    },
                    {
                        "name": "C#5",
                        "midi": 73,
                        "time": 5.249999999999999,
                        "velocity": 0.3937007874015748,
                        "duration": 0.2531249999999998
                    },
                    {
                        "name": "E5",
                        "midi": 76,
                        "time": 5.499999999999999,
                        "velocity": 0.5039370078740157,
                        "duration": 0.2531249999999998
                    },
                    {
                        "name": "D5",
                        "midi": 74,
                        "time": 5.749999999999999,
                        "velocity": 0.4566929133858268,
                        "duration": 0.2531249999999998
                    },
                    {
                        "name": "B4",
                        "midi": 71,
                        "time": 5.999999999999999,
                        "velocity": 0.48031496062992124,
                        "duration": 0.9489583333333327
                    },
                    {
                        "name": "F#5",
                        "midi": 78,
                        "time": 6.999999999999998,
                        "velocity": 0.6535433070866141,
                        "duration": 0.7635416666666668
                    },
                    {
                        "name": "G5",
                        "midi": 79,
                        "time": 7.749999999999998,
                        "velocity": 0.48031496062992124,
                        "duration": 0.2531250000000007
                    },
                    {
                        "name": "F5",
                        "midi": 77,
                        "time": 7.999999999999998,
                        "velocity": 0.48031496062992124,
                        "duration": 0.2531250000000007
                    },
                    {
                        "name": "F#5",
                        "midi": 78,
                        "time": 8.249999999999998,
                        "velocity": 0.5354330708661418,
                        "duration": 0.2531250000000007
                    },
                    {
                        "name": "B5",
                        "midi": 83,
                        "time": 8.499999999999998,
                        "velocity": 0.5590551181102362,
                        "duration": 0.2531250000000007
                    },
                    {
                        "name": "D6",
                        "midi": 86,
                        "time": 8.749999999999998,
                        "velocity": 0.5826771653543307,
                        "duration": 0.25
                    },
                    {
                        "name": "D6",
                        "midi": 86,
                        "time": 8.999999999999998,
                        "velocity": 0.889763779527559,
                        "duration": 0.2354166666666675
                    },
                    {
                        "name": "F5",
                        "midi": 77,
                        "time": 9.499999999999998,
                        "velocity": 0.44881889763779526,
                        "duration": 0.5
                    },
                    {
                        "name": "D6",
                        "midi": 86,
                        "time": 9.999999999999998,
                        "velocity": 0.7716535433070866,
                        "duration": 1
                    },
                    {
                        "name": "E5",
                        "midi": 76,
                        "time": 10.999999999999998,
                        "velocity": 0.4330708661417323,
                        "duration": 0.5093750000000004
                    },
                    {
                        "name": "C#6",
                        "midi": 85,
                        "time": 11.499999999999998,
                        "velocity": 0.6299212598425197,
                        "duration": 0.7635416666666668
                    },
                    {
                        "name": "B5",
                        "midi": 83,
                        "time": 12.249999999999998,
                        "velocity": 0.4881889763779528,
                        "duration": 0.2531250000000007
                    },
                    {
                        "name": "A#5",
                        "midi": 82,
                        "time": 12.499999999999998,
                        "velocity": 0.5039370078740157,
                        "duration": 0.2531250000000007
                    },
                    {
                        "name": "G5",
                        "midi": 79,
                        "time": 12.749999999999998,
                        "velocity": 0.4645669291338583,
                        "duration": 0.2531250000000007
                    },
                    {
                        "name": "F#5",
                        "midi": 78,
                        "time": 12.999999999999998,
                        "velocity": 0.5039370078740157,
                        "duration": 0.2531250000000007
                    },
                    {
                        "name": "C#5",
                        "midi": 73,
                        "time": 13.249999999999998,
                        "velocity": 0.4409448818897638,
                        "duration": 0.2354166666666675
                    },
                    {
                        "name": "D5",
                        "midi": 74,
                        "time": 13.499999999999998,
                        "velocity": 0.5039370078740157,
                        "duration": 0.2531250000000007
                    },
                    {
                        "name": "G5",
                        "midi": 79,
                        "time": 13.749999999999998,
                        "velocity": 0.5905511811023622,
                        "duration": 0.2531250000000007
                    },
                    {
                        "name": "F#5",
                        "midi": 78,
                        "time": 13.999999999999998,
                        "velocity": 0.4881889763779528,
                        "duration": 0.2531250000000007
                    },
                    {
                        "name": "C#5",
                        "midi": 73,
                        "time": 14.249999999999998,
                        "velocity": 0.4330708661417323,
                        "duration": 0.2531250000000007
                    },
                    {
                        "name": "D5",
                        "midi": 74,
                        "time": 14.499999999999998,
                        "velocity": 0.48031496062992124,
                        "duration": 0.2531250000000007
                    },
                    {
                        "name": "B4",
                        "midi": 71,
                        "time": 14.749999999999998,
                        "velocity": 0.4566929133858268,
                        "duration": 0.2531250000000007
                    },
                    {
                        "name": "A#4",
                        "midi": 70,
                        "time": 14.999999999999998,
                        "velocity": 0.4409448818897638,
                        "duration": 0.9489583333333336
                    },
                    {
                        "name": "F#5",
                        "midi": 78,
                        "time": 15.999999999999998,
                        "velocity": 0.6850393700787402,
                        "duration": 0.7635416666666668
                    },
                    {
                        "name": "G5",
                        "midi": 79,
                        "time": 16.75,
                        "velocity": 0.5039370078740157,
                        "duration": 0.2531250000000007
                    },
                    {
                        "name": "F#5",
                        "midi": 78,
                        "time": 17,
                        "velocity": 0.47244094488188976,
                        "duration": 0.2531250000000007
                    },
                    {
                        "name": "C#5",
                        "midi": 73,
                        "time": 17.25,
                        "velocity": 0.4251968503937008,
                        "duration": 0.2531250000000007
                    },
                    {
                        "name": "E5",
                        "midi": 76,
                        "time": 17.5,
                        "velocity": 0.5039370078740157,
                        "duration": 0.2531250000000007
                    },
                    {
                        "name": "D5",
                        "midi": 74,
                        "time": 17.75,
                        "velocity": 0.48031496062992124,
                        "duration": 0.2531250000000007
                    },
                    {
                        "name": "B4",
                        "midi": 71,
                        "time": 18,
                        "velocity": 0.48031496062992124,
                        "duration": 0.9489583333333336
                    },
                    {
                        "name": "F#5",
                        "midi": 78,
                        "time": 19,
                        "velocity": 0.7559055118110236,
                        "duration": 0.763541666666665
                    },
                    {
                        "name": "F#6",
                        "midi": 90,
                        "time": 19.75,
                        "velocity": 0.7007874015748031,
                        "duration": 0.2531250000000007
                    },
                    {
                        "name": "C#6",
                        "midi": 85,
                        "time": 20,
                        "velocity": 0.5118110236220472,
                        "duration": 0.2531250000000007
                    },
                    {
                        "name": "D6",
                        "midi": 86,
                        "time": 20.25,
                        "velocity": 0.6692913385826772,
                        "duration": 0.2531250000000007
                    },
                    {
                        "name": "A#5",
                        "midi": 82,
                        "time": 20.5,
                        "velocity": 0.5196850393700787,
                        "duration": 0.2531250000000007
                    },
                    {
                        "name": "B5",
                        "midi": 83,
                        "time": 20.75,
                        "velocity": 0.7322834645669292,
                        "duration": 0.23541666666666572
                    },
                    {
                        "name": "A5",
                        "midi": 81,
                        "time": 21,
                        "velocity": 0.7165354330708661,
                        "duration": 0.2531250000000007
                    },
                    {
                        "name": "G5",
                        "midi": 79,
                        "time": 21.25,
                        "velocity": 0.6850393700787402,
                        "duration": 0.2531250000000007
                    },
                    {
                        "name": "B4",
                        "midi": 71,
                        "time": 21.5,
                        "velocity": 0.6141732283464567,
                        "duration": 0.2531250000000007
                    },
                    {
                        "name": "C#5",
                        "midi": 73,
                        "time": 21.75,
                        "velocity": 0.6299212598425197,
                        "duration": 0.2531250000000007
                    },
                    {
                        "name": "D5",
                        "midi": 74,
                        "time": 22,
                        "velocity": 0.7795275590551181,
                        "duration": 0.2531250000000007
                    },
                    {
                        "name": "E5",
                        "midi": 76,
                        "time": 22.25,
                        "velocity": 0.7874015748031497,
                        "duration": 0.23541666666666572
                    },
                    {
                        "name": "G5",
                        "midi": 79,
                        "time": 22.5,
                        "velocity": 0.8267716535433071,
                        "duration": 0.2531250000000007
                    },
                    {
                        "name": "F#5",
                        "midi": 78,
                        "time": 22.75,
                        "velocity": 0.6929133858267716,
                        "duration": 0.2531250000000007
                    },
                    {
                        "name": "B4",
                        "midi": 71,
                        "time": 23,
                        "velocity": 0.5511811023622047,
                        "duration": 0.2531250000000007
                    },
                    {
                        "name": "D5",
                        "midi": 74,
                        "time": 23.25,
                        "velocity": 0.6929133858267716,
                        "duration": 0.2531250000000007
                    },
                    {
                        "name": "C#5",
                        "midi": 73,
                        "time": 23.5,
                        "velocity": 0.6614173228346457,
                        "duration": 0.2531250000000007
                    },
                    {
                        "name": "F#4",
                        "midi": 66,
                        "time": 23.75,
                        "velocity": 0.5275590551181102,
                        "duration": 0.2531250000000007
                    },
                    {
                        "name": "B4",
                        "midi": 71,
                        "time": 24,
                        "velocity": 0.6771653543307087,
                        "duration": 0.23541666666666572
                    },
                    {
                        "name": "F#4",
                        "midi": 66,
                        "time": 24.5,
                        "velocity": 0.5984251968503937,
                        "duration": 0.2531250000000007
                    },
                    {
                        "name": "A#4",
                        "midi": 70,
                        "time": 24.75,
                        "velocity": 0.6299212598425197,
                        "duration": 0.2531250000000007
                    },
                    {
                        "name": "B4",
                        "midi": 71,
                        "time": 25,
                        "velocity": 0.5590551181102362,
                        "duration": 0.2531250000000007
                    },
                    {
                        "name": "C#5",
                        "midi": 73,
                        "time": 25.25,
                        "velocity": 0.5433070866141733,
                        "duration": 0.23541666666666572
                    },
                    {
                        "name": "D5",
                        "midi": 74,
                        "time": 25.5,
                        "velocity": 0.4881889763779528,
                        "duration": 0.2531250000000007
                    },
                    {
                        "name": "G5",
                        "midi": 79,
                        "time": 25.75,
                        "velocity": 0.5275590551181102,
                        "duration": 0.2531250000000007
                    },
                    {
                        "name": "F#5",
                        "midi": 78,
                        "time": 26,
                        "velocity": 0.47244094488188976,
                        "duration": 0.2531250000000007
                    },
                    {
                        "name": "C#5",
                        "midi": 73,
                        "time": 26.25,
                        "velocity": 0.44881889763779526,
                        "duration": 0.2531250000000007
                    },
                    {
                        "name": "D5",
                        "midi": 74,
                        "time": 26.5,
                        "velocity": 0.5354330708661418,
                        "duration": 0.2531250000000007
                    },
                    {
                        "name": "B4",
                        "midi": 71,
                        "time": 26.75,
                        "velocity": 0.48031496062992124,
                        "duration": 0.2531250000000007
                    },
                    {
                        "name": "A#4",
                        "midi": 70,
                        "time": 27,
                        "velocity": 0.4330708661417323,
                        "duration": 0.9489583333333336
                    },
                    {
                        "name": "F#5",
                        "midi": 78,
                        "time": 28,
                        "velocity": 0.6850393700787402,
                        "duration": 0.763541666666665
                    },
                    {
                        "name": "G5",
                        "midi": 79,
                        "time": 28.75,
                        "velocity": 0.7244094488188977,
                        "duration": 0.2531250000000007
                    },
                    {
                        "name": "F#5",
                        "midi": 78,
                        "time": 29,
                        "velocity": 0.48031496062992124,
                        "duration": 0.2531250000000007
                    },
                    {
                        "name": "C#5",
                        "midi": 73,
                        "time": 29.25,
                        "velocity": 0.4251968503937008,
                        "duration": 0.2531250000000007
                    },
                    {
                        "name": "E5",
                        "midi": 76,
                        "time": 29.5,
                        "velocity": 0.4881889763779528,
                        "duration": 0.2531250000000007
                    },
                    {
                        "name": "D5",
                        "midi": 74,
                        "time": 29.75,
                        "velocity": 0.4251968503937008,
                        "duration": 0.2531250000000007
                    },
                    {
                        "name": "B4",
                        "midi": 71,
                        "time": 30,
                        "velocity": 0.4409448818897638,
                        "duration": 0.9489583333333336
                    },
                    {
                        "name": "F#5",
                        "midi": 78,
                        "time": 31,
                        "velocity": 0.6456692913385826,
                        "duration": 0.763541666666665
                    },
                    {
                        "name": "G5",
                        "midi": 79,
                        "time": 31.75,
                        "velocity": 0.4645669291338583,
                        "duration": 0.25312499999999716
                    },
                    {
                        "name": "F5",
                        "midi": 77,
                        "time": 32,
                        "velocity": 0.49606299212598426,
                        "duration": 0.25312499999999716
                    },
                    {
                        "name": "F#5",
                        "midi": 78,
                        "time": 32.25,
                        "velocity": 0.5118110236220472,
                        "duration": 0.25312499999999716
                    },
                    {
                        "name": "B5",
                        "midi": 83,
                        "time": 32.5,
                        "velocity": 0.5984251968503937,
                        "duration": 0.25312499999999716
                    },
                    {
                        "name": "D6",
                        "midi": 86,
                        "time": 32.75,
                        "velocity": 0.6062992125984252,
                        "duration": 0.25
                    },
                    {
                        "name": "D6",
                        "midi": 86,
                        "time": 33,
                        "velocity": 0.889763779527559,
                        "duration": 0.23541666666666572
                    },
                    {
                        "name": "F5",
                        "midi": 77,
                        "time": 33.5,
                        "velocity": 0.47244094488188976,
                        "duration": 0.5
                    },
                    {
                        "name": "D6",
                        "midi": 86,
                        "time": 34,
                        "velocity": 0.7637795275590551,
                        "duration": 1
                    },
                    {
                        "name": "E5",
                        "midi": 76,
                        "time": 35,
                        "velocity": 0.4094488188976378,
                        "duration": 0.5093749999999986
                    },
                    {
                        "name": "C#6",
                        "midi": 85,
                        "time": 35.5,
                        "velocity": 0.4881889763779528,
                        "duration": 0.7635416666666686
                    },
                    {
                        "name": "B5",
                        "midi": 83,
                        "time": 36.25,
                        "velocity": 0.5196850393700787,
                        "duration": 0.25312499999999716
                    },
                    {
                        "name": "A#5",
                        "midi": 82,
                        "time": 36.5,
                        "velocity": 0.4881889763779528,
                        "duration": 0.25312499999999716
                    },
                    {
                        "name": "G5",
                        "midi": 79,
                        "time": 36.75,
                        "velocity": 0.4645669291338583,
                        "duration": 0.25312499999999716
                    },
                    {
                        "name": "F#5",
                        "midi": 78,
                        "time": 37,
                        "velocity": 0.5118110236220472,
                        "duration": 0.25312499999999716
                    },
                    {
                        "name": "C#5",
                        "midi": 73,
                        "time": 37.25,
                        "velocity": 0.4566929133858268,
                        "duration": 0.23541666666666572
                    },
                    {
                        "name": "D5",
                        "midi": 74,
                        "time": 37.5,
                        "velocity": 0.49606299212598426,
                        "duration": 0.25312499999999716
                    },
                    {
                        "name": "G5",
                        "midi": 79,
                        "time": 37.75,
                        "velocity": 0.5039370078740157,
                        "duration": 0.25312499999999716
                    },
                    {
                        "name": "F#5",
                        "midi": 78,
                        "time": 38,
                        "velocity": 0.44881889763779526,
                        "duration": 0.25312499999999716
                    },
                    {
                        "name": "C#5",
                        "midi": 73,
                        "time": 38.25,
                        "velocity": 0.4015748031496063,
                        "duration": 0.25312499999999716
                    },
                    {
                        "name": "D5",
                        "midi": 74,
                        "time": 38.5,
                        "velocity": 0.4645669291338583,
                        "duration": 0.25312499999999716
                    },
                    {
                        "name": "B4",
                        "midi": 71,
                        "time": 38.75,
                        "velocity": 0.3858267716535433,
                        "duration": 0.25312499999999716
                    },
                    {
                        "name": "A#4",
                        "midi": 70,
                        "time": 39,
                        "velocity": 0.44881889763779526,
                        "duration": 0.94895833333333
                    },
                    {
                        "name": "F#5",
                        "midi": 78,
                        "time": 40,
                        "velocity": 0.5511811023622047,
                        "duration": 0.7635416666666686
                    },
                    {
                        "name": "G5",
                        "midi": 79,
                        "time": 40.75,
                        "velocity": 0.5275590551181102,
                        "duration": 0.25312499999999716
                    },
                    {
                        "name": "F#5",
                        "midi": 78,
                        "time": 41,
                        "velocity": 0.5354330708661418,
                        "duration": 0.25312499999999716
                    },
                    {
                        "name": "C#5",
                        "midi": 73,
                        "time": 41.25,
                        "velocity": 0.5039370078740157,
                        "duration": 0.25312499999999716
                    },
                    {
                        "name": "E5",
                        "midi": 76,
                        "time": 41.5,
                        "velocity": 0.6614173228346457,
                        "duration": 0.25312499999999716
                    },
                    {
                        "name": "D5",
                        "midi": 74,
                        "time": 41.75,
                        "velocity": 0.5905511811023622,
                        "duration": 0.25312499999999716
                    },
                    {
                        "name": "B4",
                        "midi": 71,
                        "time": 42,
                        "velocity": 0.6141732283464567,
                        "duration": 0.94895833333333
                    },
                    {
                        "name": "F#5",
                        "midi": 78,
                        "time": 43,
                        "velocity": 0.8267716535433071,
                        "duration": 0.7635416666666686
                    },
                    {
                        "name": "F#6",
                        "midi": 90,
                        "time": 43.75,
                        "velocity": 0.9763779527559056,
                        "duration": 0.25312499999999716
                    },
                    {
                        "name": "C#6",
                        "midi": 85,
                        "time": 44,
                        "velocity": 0.8976377952755905,
                        "duration": 0.25312499999999716
                    },
                    {
                        "name": "D6",
                        "midi": 86,
                        "time": 44.25,
                        "velocity": 0.7637795275590551,
                        "duration": 0.25312499999999716
                    },
                    {
                        "name": "A#5",
                        "midi": 82,
                        "time": 44.5,
                        "velocity": 0.6614173228346457,
                        "duration": 0.25312499999999716
                    },
                    {
                        "name": "B5",
                        "midi": 83,
                        "time": 44.75,
                        "velocity": 0.7952755905511811,
                        "duration": 0.23541666666666572
                    },
                    {
                        "name": "A5",
                        "midi": 81,
                        "time": 45,
                        "velocity": 0.7086614173228346,
                        "duration": 0.25312499999999716
                    },
                    {
                        "name": "G5",
                        "midi": 79,
                        "time": 45.25,
                        "velocity": 0.6692913385826772,
                        "duration": 0.25312499999999716
                    },
                    {
                        "name": "B4",
                        "midi": 71,
                        "time": 45.5,
                        "velocity": 0.6456692913385826,
                        "duration": 0.25312499999999716
                    },
                    {
                        "name": "C#5",
                        "midi": 73,
                        "time": 45.75,
                        "velocity": 0.6850393700787402,
                        "duration": 0.25312499999999716
                    },
                    {
                        "name": "D5",
                        "midi": 74,
                        "time": 46,
                        "velocity": 0.7874015748031497,
                        "duration": 0.25312499999999716
                    },
                    {
                        "name": "E5",
                        "midi": 76,
                        "time": 46.25,
                        "velocity": 0.8661417322834646,
                        "duration": 0.23541666666666572
                    },
                    {
                        "name": "G5",
                        "midi": 79,
                        "time": 46.5,
                        "velocity": 0.8346456692913385,
                        "duration": 0.25312499999999716
                    },
                    {
                        "name": "F#5",
                        "midi": 78,
                        "time": 46.75,
                        "velocity": 0.6850393700787402,
                        "duration": 0.25312499999999716
                    },
                    {
                        "name": "B4",
                        "midi": 71,
                        "time": 47,
                        "velocity": 0.5669291338582677,
                        "duration": 0.25312499999999716
                    },
                    {
                        "name": "D5",
                        "midi": 74,
                        "time": 47.25,
                        "velocity": 0.6220472440944882,
                        "duration": 0.25312499999999716
                    },
                    {
                        "name": "C#5",
                        "midi": 73,
                        "time": 47.5,
                        "velocity": 0.5826771653543307,
                        "duration": 0.25312499999999716
                    },
                    {
                        "name": "F#4",
                        "midi": 66,
                        "time": 47.75,
                        "velocity": 0.41732283464566927,
                        "duration": 0.25312499999999716
                    },
                    {
                        "name": "B4",
                        "midi": 71,
                        "time": 48,
                        "velocity": 0.5196850393700787,
                        "duration": 0.7104166666666671
                    }
                ],
                "controlChanges": {
                    "7": [
                        {
                            "number": 7,
                            "time": 0,
                            "value": 0.7874015748031497
                        }
                    ],
                    "10": [
                        {
                            "number": 10,
                            "time": 0,
                            "value": 0.4015748031496063
                        }
                    ],
                    "64": [
                        {
                            "number": 64,
                            "time": 0,
                            "value": 0
                        },
                        {
                            "number": 64,
                            "time": 1.5,
                            "value": 1
                        },
                        {
                            "number": 64,
                            "time": 2.9979166666666663,
                            "value": 0
                        },
                        {
                            "number": 64,
                            "time": 2.9999999999999996,
                            "value": 1
                        },
                        {
                            "number": 64,
                            "time": 4.497916666666666,
                            "value": 0
                        }
                    ],
                    "91": [
                        {
                            "number": 91,
                            "time": 0,
                            "value": 0.3779527559055118
                        }
                    ],
                    "121": [
                        {
                            "number": 121,
                            "time": 0,
                            "value": 0
                        }
                    ]
                },
                "id": 0,
                "name": "inst",
                "channelNumber": 0,
                "isPercussion": false
            }
        ]
    },
    // Bach, Partita in A Minor, BWV 1013
    {
        "header": {
            "PPQ": 384,
            "timeSignature": [
                4,
                4
            ],
            "bpm": 60,
            "name": "control track"
        },
        "startTime": 0,
        "duration": 188,
        "tracks": [
            {
                "startTime": 0.25,
                "duration": 188,
                "length": 735,
                "notes": [
                    {
                        "name": "E5",
                        "midi": 76,
                        "time": 0.25,
                        "velocity": 0.7086614173228346,
                        "duration": 0.25
                    },
                    {
                        "name": "A5",
                        "midi": 81,
                        "time": 0.5,
                        "velocity": 0.7086614173228346,
                        "duration": 0.25
                    },
                    {
                        "name": "G#5",
                        "midi": 80,
                        "time": 0.75,
                        "velocity": 0.7086614173228346,
                        "duration": 0.25
                    },
                    {
                        "name": "A5",
                        "midi": 81,
                        "time": 1,
                        "velocity": 0.7086614173228346,
                        "duration": 0.25
                    },
                    {
                        "name": "C6",
                        "midi": 84,
                        "time": 1.25,
                        "velocity": 0.7086614173228346,
                        "duration": 0.25
                    },
                    {
                        "name": "A5",
                        "midi": 81,
                        "time": 1.5,
                        "velocity": 0.7086614173228346,
                        "duration": 0.25
                    },
                    {
                        "name": "E5",
                        "midi": 76,
                        "time": 1.75,
                        "velocity": 0.7086614173228346,
                        "duration": 0.25
                    },
                    {
                        "name": "A4",
                        "midi": 69,
                        "time": 2,
                        "velocity": 0.7086614173228346,
                        "duration": 0.25
                    },
                    {
                        "name": "E5",
                        "midi": 76,
                        "time": 2.25,
                        "velocity": 0.7086614173228346,
                        "duration": 0.25
                    },
                    {
                        "name": "A5",
                        "midi": 81,
                        "time": 2.5,
                        "velocity": 0.7086614173228346,
                        "duration": 0.25
                    },
                    {
                        "name": "G#5",
                        "midi": 80,
                        "time": 2.75,
                        "velocity": 0.7086614173228346,
                        "duration": 0.25
                    },
                    {
                        "name": "A5",
                        "midi": 81,
                        "time": 3,
                        "velocity": 0.7086614173228346,
                        "duration": 0.25
                    },
                    {
                        "name": "C6",
                        "midi": 84,
                        "time": 3.25,
                        "velocity": 0.7086614173228346,
                        "duration": 0.25
                    },
                    {
                        "name": "A5",
                        "midi": 81,
                        "time": 3.5,
                        "velocity": 0.7086614173228346,
                        "duration": 0.25
                    },
                    {
                        "name": "E5",
                        "midi": 76,
                        "time": 3.75,
                        "velocity": 0.7086614173228346,
                        "duration": 0.25
                    },
                    {
                        "name": "A4",
                        "midi": 69,
                        "time": 4,
                        "velocity": 0.7086614173228346,
                        "duration": 0.25
                    },
                    {
                        "name": "C5",
                        "midi": 72,
                        "time": 4.25,
                        "velocity": 0.7086614173228346,
                        "duration": 0.25
                    },
                    {
                        "name": "E5",
                        "midi": 76,
                        "time": 4.5,
                        "velocity": 0.7086614173228346,
                        "duration": 0.25
                    },
                    {
                        "name": "F5",
                        "midi": 77,
                        "time": 4.75,
                        "velocity": 0.7086614173228346,
                        "duration": 0.25
                    },
                    {
                        "name": "G#4",
                        "midi": 68,
                        "time": 5,
                        "velocity": 0.7086614173228346,
                        "duration": 0.25
                    },
                    {
                        "name": "F5",
                        "midi": 77,
                        "time": 5.25,
                        "velocity": 0.7086614173228346,
                        "duration": 0.25
                    },
                    {
                        "name": "E5",
                        "midi": 76,
                        "time": 5.5,
                        "velocity": 0.7086614173228346,
                        "duration": 0.25
                    },
                    {
                        "name": "D5",
                        "midi": 74,
                        "time": 5.75,
                        "velocity": 0.7086614173228346,
                        "duration": 0.25
                    },
                    {
                        "name": "C5",
                        "midi": 72,
                        "time": 6,
                        "velocity": 0.7086614173228346,
                        "duration": 0.25
                    },
                    {
                        "name": "E5",
                        "midi": 76,
                        "time": 6.25,
                        "velocity": 0.7086614173228346,
                        "duration": 0.25
                    },
                    {
                        "name": "G#5",
                        "midi": 80,
                        "time": 6.5,
                        "velocity": 0.7086614173228346,
                        "duration": 0.25
                    },
                    {
                        "name": "A5",
                        "midi": 81,
                        "time": 6.75,
                        "velocity": 0.7086614173228346,
                        "duration": 0.25
                    },
                    {
                        "name": "E4",
                        "midi": 64,
                        "time": 7,
                        "velocity": 0.7086614173228346,
                        "duration": 0.25
                    },
                    {
                        "name": "D5",
                        "midi": 74,
                        "time": 7.25,
                        "velocity": 0.7086614173228346,
                        "duration": 0.25
                    },
                    {
                        "name": "C5",
                        "midi": 72,
                        "time": 7.5,
                        "velocity": 0.7086614173228346,
                        "duration": 0.25
                    },
                    {
                        "name": "B4",
                        "midi": 71,
                        "time": 7.75,
                        "velocity": 0.7086614173228346,
                        "duration": 0.25
                    },
                    {
                        "name": "A4",
                        "midi": 69,
                        "time": 8,
                        "velocity": 0.7086614173228346,
                        "duration": 0.25
                    },
                    {
                        "name": "C5",
                        "midi": 72,
                        "time": 8.25,
                        "velocity": 0.7086614173228346,
                        "duration": 0.25
                    },
                    {
                        "name": "E5",
                        "midi": 76,
                        "time": 8.5,
                        "velocity": 0.7086614173228346,
                        "duration": 0.25
                    },
                    {
                        "name": "F5",
                        "midi": 77,
                        "time": 8.75,
                        "velocity": 0.7086614173228346,
                        "duration": 0.25
                    },
                    {
                        "name": "G#4",
                        "midi": 68,
                        "time": 9,
                        "velocity": 0.7086614173228346,
                        "duration": 0.25
                    },
                    {
                        "name": "F5",
                        "midi": 77,
                        "time": 9.25,
                        "velocity": 0.7086614173228346,
                        "duration": 0.25
                    },
                    {
                        "name": "E5",
                        "midi": 76,
                        "time": 9.5,
                        "velocity": 0.7086614173228346,
                        "duration": 0.25
                    },
                    {
                        "name": "D5",
                        "midi": 74,
                        "time": 9.75,
                        "velocity": 0.7086614173228346,
                        "duration": 0.25
                    },
                    {
                        "name": "C5",
                        "midi": 72,
                        "time": 10,
                        "velocity": 0.7086614173228346,
                        "duration": 0.25
                    },
                    {
                        "name": "E5",
                        "midi": 76,
                        "time": 10.25,
                        "velocity": 0.7086614173228346,
                        "duration": 0.25
                    },
                    {
                        "name": "G#5",
                        "midi": 80,
                        "time": 10.5,
                        "velocity": 0.7086614173228346,
                        "duration": 0.25
                    },
                    {
                        "name": "A5",
                        "midi": 81,
                        "time": 10.75,
                        "velocity": 0.7086614173228346,
                        "duration": 0.25
                    },
                    {
                        "name": "E4",
                        "midi": 64,
                        "time": 11,
                        "velocity": 0.7086614173228346,
                        "duration": 0.25
                    },
                    {
                        "name": "D5",
                        "midi": 74,
                        "time": 11.25,
                        "velocity": 0.7086614173228346,
                        "duration": 0.25
                    },
                    {
                        "name": "C5",
                        "midi": 72,
                        "time": 11.5,
                        "velocity": 0.7086614173228346,
                        "duration": 0.25
                    },
                    {
                        "name": "B4",
                        "midi": 71,
                        "time": 11.75,
                        "velocity": 0.7086614173228346,
                        "duration": 0.25
                    },
                    {
                        "name": "A4",
                        "midi": 69,
                        "time": 12,
                        "velocity": 0.7086614173228346,
                        "duration": 0.25
                    },
                    {
                        "name": "C5",
                        "midi": 72,
                        "time": 12.25,
                        "velocity": 0.7086614173228346,
                        "duration": 0.25
                    },
                    {
                        "name": "G#4",
                        "midi": 68,
                        "time": 12.5,
                        "velocity": 0.7086614173228346,
                        "duration": 0.25
                    },
                    {
                        "name": "A4",
                        "midi": 69,
                        "time": 12.75,
                        "velocity": 0.7086614173228346,
                        "duration": 0.25
                    },
                    {
                        "name": "F4",
                        "midi": 65,
                        "time": 13,
                        "velocity": 0.7086614173228346,
                        "duration": 0.25
                    },
                    {
                        "name": "D5",
                        "midi": 74,
                        "time": 13.25,
                        "velocity": 0.7086614173228346,
                        "duration": 0.25
                    },
                    {
                        "name": "G#4",
                        "midi": 68,
                        "time": 13.5,
                        "velocity": 0.7086614173228346,
                        "duration": 0.25
                    },
                    {
                        "name": "A4",
                        "midi": 69,
                        "time": 13.75,
                        "velocity": 0.7086614173228346,
                        "duration": 0.25
                    },
                    {
                        "name": "E4",
                        "midi": 64,
                        "time": 14,
                        "velocity": 0.7086614173228346,
                        "duration": 0.25
                    },
                    {
                        "name": "C5",
                        "midi": 72,
                        "time": 14.25,
                        "velocity": 0.7086614173228346,
                        "duration": 0.25
                    },
                    {
                        "name": "G#4",
                        "midi": 68,
                        "time": 14.5,
                        "velocity": 0.7086614173228346,
                        "duration": 0.25
                    },
                    {
                        "name": "A4",
                        "midi": 69,
                        "time": 14.75,
                        "velocity": 0.7086614173228346,
                        "duration": 0.25
                    },
                    {
                        "name": "D4",
                        "midi": 62,
                        "time": 15,
                        "velocity": 0.7086614173228346,
                        "duration": 0.25
                    },
                    {
                        "name": "C5",
                        "midi": 72,
                        "time": 15.25,
                        "velocity": 0.7086614173228346,
                        "duration": 0.25
                    },
                    {
                        "name": "B4",
                        "midi": 71,
                        "time": 15.5,
                        "velocity": 0.7086614173228346,
                        "duration": 0.25
                    },
                    {
                        "name": "A4",
                        "midi": 69,
                        "time": 15.75,
                        "velocity": 0.7086614173228346,
                        "duration": 0.25
                    },
                    {
                        "name": "G#4",
                        "midi": 68,
                        "time": 16,
                        "velocity": 0.7086614173228346,
                        "duration": 0.25
                    },
                    {
                        "name": "E4",
                        "midi": 64,
                        "time": 16.25,
                        "velocity": 0.7086614173228346,
                        "duration": 0.25
                    },
                    {
                        "name": "G#4",
                        "midi": 68,
                        "time": 16.5,
                        "velocity": 0.7086614173228346,
                        "duration": 0.25
                    },
                    {
                        "name": "B4",
                        "midi": 71,
                        "time": 16.75,
                        "velocity": 0.7086614173228346,
                        "duration": 0.25
                    },
                    {
                        "name": "E5",
                        "midi": 76,
                        "time": 17,
                        "velocity": 0.7086614173228346,
                        "duration": 0.25
                    },
                    {
                        "name": "G#5",
                        "midi": 80,
                        "time": 17.25,
                        "velocity": 0.7086614173228346,
                        "duration": 0.25
                    },
                    {
                        "name": "B5",
                        "midi": 83,
                        "time": 17.5,
                        "velocity": 0.7086614173228346,
                        "duration": 0.25
                    },
                    {
                        "name": "D6",
                        "midi": 86,
                        "time": 17.75,
                        "velocity": 0.7086614173228346,
                        "duration": 0.25
                    },
                    {
                        "name": "F5",
                        "midi": 77,
                        "time": 18,
                        "velocity": 0.7086614173228346,
                        "duration": 0.25
                    },
                    {
                        "name": "D6",
                        "midi": 86,
                        "time": 18.25,
                        "velocity": 0.7086614173228346,
                        "duration": 0.25
                    },
                    {
                        "name": "B5",
                        "midi": 83,
                        "time": 18.5,
                        "velocity": 0.7086614173228346,
                        "duration": 0.25
                    },
                    {
                        "name": "G#5",
                        "midi": 80,
                        "time": 18.75,
                        "velocity": 0.7086614173228346,
                        "duration": 0.25
                    },
                    {
                        "name": "E5",
                        "midi": 76,
                        "time": 19,
                        "velocity": 0.7086614173228346,
                        "duration": 0.25
                    },
                    {
                        "name": "D5",
                        "midi": 74,
                        "time": 19.25,
                        "velocity": 0.7086614173228346,
                        "duration": 0.25
                    },
                    {
                        "name": "C5",
                        "midi": 72,
                        "time": 19.5,
                        "velocity": 0.7086614173228346,
                        "duration": 0.25
                    },
                    {
                        "name": "B4",
                        "midi": 71,
                        "time": 19.75,
                        "velocity": 0.7086614173228346,
                        "duration": 0.25
                    },
                    {
                        "name": "C5",
                        "midi": 72,
                        "time": 20,
                        "velocity": 0.7086614173228346,
                        "duration": 0.25
                    },
                    {
                        "name": "A4",
                        "midi": 69,
                        "time": 20.25,
                        "velocity": 0.7086614173228346,
                        "duration": 0.25
                    },
                    {
                        "name": "C5",
                        "midi": 72,
                        "time": 20.5,
                        "velocity": 0.7086614173228346,
                        "duration": 0.25
                    },
                    {
                        "name": "E5",
                        "midi": 76,
                        "time": 20.75,
                        "velocity": 0.7086614173228346,
                        "duration": 0.25
                    },
                    {
                        "name": "A5",
                        "midi": 81,
                        "time": 21,
                        "velocity": 0.7086614173228346,
                        "duration": 0.25
                    },
                    {
                        "name": "C6",
                        "midi": 84,
                        "time": 21.25,
                        "velocity": 0.7086614173228346,
                        "duration": 0.25
                    },
                    {
                        "name": "E6",
                        "midi": 88,
                        "time": 21.5,
                        "velocity": 0.7086614173228346,
                        "duration": 0.25
                    },
                    {
                        "name": "F5",
                        "midi": 77,
                        "time": 21.75,
                        "velocity": 0.7086614173228346,
                        "duration": 0.25
                    },
                    {
                        "name": "G5",
                        "midi": 79,
                        "time": 22,
                        "velocity": 0.7086614173228346,
                        "duration": 0.25
                    },
                    {
                        "name": "A#5",
                        "midi": 82,
                        "time": 22.25,
                        "velocity": 0.7086614173228346,
                        "duration": 0.25
                    },
                    {
                        "name": "G5",
                        "midi": 79,
                        "time": 22.5,
                        "velocity": 0.7086614173228346,
                        "duration": 0.25
                    },
                    {
                        "name": "E5",
                        "midi": 76,
                        "time": 22.75,
                        "velocity": 0.7086614173228346,
                        "duration": 0.25
                    },
                    {
                        "name": "C5",
                        "midi": 72,
                        "time": 23,
                        "velocity": 0.7086614173228346,
                        "duration": 0.25
                    },
                    {
                        "name": "A#4",
                        "midi": 70,
                        "time": 23.25,
                        "velocity": 0.7086614173228346,
                        "duration": 0.25
                    },
                    {
                        "name": "A4",
                        "midi": 69,
                        "time": 23.5,
                        "velocity": 0.7086614173228346,
                        "duration": 0.25
                    },
                    {
                        "name": "G4",
                        "midi": 67,
                        "time": 23.75,
                        "velocity": 0.7086614173228346,
                        "duration": 0.25
                    },
                    {
                        "name": "A4",
                        "midi": 69,
                        "time": 24,
                        "velocity": 0.7086614173228346,
                        "duration": 0.25
                    },
                    {
                        "name": "F4",
                        "midi": 65,
                        "time": 24.25,
                        "velocity": 0.7086614173228346,
                        "duration": 0.25
                    },
                    {
                        "name": "A4",
                        "midi": 69,
                        "time": 24.5,
                        "velocity": 0.7086614173228346,
                        "duration": 0.25
                    },
                    {
                        "name": "C5",
                        "midi": 72,
                        "time": 24.75,
                        "velocity": 0.7086614173228346,
                        "duration": 0.25
                    },
                    {
                        "name": "D5",
                        "midi": 74,
                        "time": 25,
                        "velocity": 0.7086614173228346,
                        "duration": 0.25
                    },
                    {
                        "name": "F5",
                        "midi": 77,
                        "time": 25.25,
                        "velocity": 0.7086614173228346,
                        "duration": 0.25
                    },
                    {
                        "name": "A5",
                        "midi": 81,
                        "time": 25.5,
                        "velocity": 0.7086614173228346,
                        "duration": 0.25
                    },
                    {
                        "name": "C5",
                        "midi": 72,
                        "time": 25.75,
                        "velocity": 0.7086614173228346,
                        "duration": 0.25
                    },
                    {
                        "name": "B4",
                        "midi": 71,
                        "time": 26,
                        "velocity": 0.7086614173228346,
                        "duration": 0.25
                    },
                    {
                        "name": "G4",
                        "midi": 67,
                        "time": 26.25,
                        "velocity": 0.7086614173228346,
                        "duration": 0.25
                    },
                    {
                        "name": "B4",
                        "midi": 71,
                        "time": 26.5,
                        "velocity": 0.7086614173228346,
                        "duration": 0.25
                    },
                    {
                        "name": "D5",
                        "midi": 74,
                        "time": 26.75,
                        "velocity": 0.7086614173228346,
                        "duration": 0.25
                    },
                    {
                        "name": "E5",
                        "midi": 76,
                        "time": 27,
                        "velocity": 0.7086614173228346,
                        "duration": 0.25
                    },
                    {
                        "name": "G5",
                        "midi": 79,
                        "time": 27.25,
                        "velocity": 0.7086614173228346,
                        "duration": 0.25
                    },
                    {
                        "name": "B5",
                        "midi": 83,
                        "time": 27.5,
                        "velocity": 0.7086614173228346,
                        "duration": 0.25
                    },
                    {
                        "name": "D5",
                        "midi": 74,
                        "time": 27.75,
                        "velocity": 0.7086614173228346,
                        "duration": 0.25
                    },
                    {
                        "name": "C5",
                        "midi": 72,
                        "time": 28,
                        "velocity": 0.7086614173228346,
                        "duration": 0.25
                    },
                    {
                        "name": "A4",
                        "midi": 69,
                        "time": 28.25,
                        "velocity": 0.7086614173228346,
                        "duration": 0.25
                    },
                    {
                        "name": "C5",
                        "midi": 72,
                        "time": 28.5,
                        "velocity": 0.7086614173228346,
                        "duration": 0.25
                    },
                    {
                        "name": "E5",
                        "midi": 76,
                        "time": 28.75,
                        "velocity": 0.7086614173228346,
                        "duration": 0.25
                    },
                    {
                        "name": "F5",
                        "midi": 77,
                        "time": 29,
                        "velocity": 0.7086614173228346,
                        "duration": 0.25
                    },
                    {
                        "name": "A5",
                        "midi": 81,
                        "time": 29.25,
                        "velocity": 0.7086614173228346,
                        "duration": 0.25
                    },
                    {
                        "name": "C6",
                        "midi": 84,
                        "time": 29.5,
                        "velocity": 0.7086614173228346,
                        "duration": 0.25
                    },
                    {
                        "name": "E5",
                        "midi": 76,
                        "time": 29.75,
                        "velocity": 0.7086614173228346,
                        "duration": 0.25
                    },
                    {
                        "name": "D5",
                        "midi": 74,
                        "time": 30,
                        "velocity": 0.7086614173228346,
                        "duration": 0.25
                    },
                    {
                        "name": "B4",
                        "midi": 71,
                        "time": 30.25,
                        "velocity": 0.7086614173228346,
                        "duration": 0.25
                    },
                    {
                        "name": "D5",
                        "midi": 74,
                        "time": 30.5,
                        "velocity": 0.7086614173228346,
                        "duration": 0.25
                    },
                    {
                        "name": "F#5",
                        "midi": 78,
                        "time": 30.75,
                        "velocity": 0.7086614173228346,
                        "duration": 0.25
                    },
                    {
                        "name": "G5",
                        "midi": 79,
                        "time": 31,
                        "velocity": 0.7086614173228346,
                        "duration": 0.25
                    },
                    {
                        "name": "B5",
                        "midi": 83,
                        "time": 31.25,
                        "velocity": 0.7086614173228346,
                        "duration": 0.25
                    },
                    {
                        "name": "D6",
                        "midi": 86,
                        "time": 31.5,
                        "velocity": 0.7086614173228346,
                        "duration": 0.25
                    },
                    {
                        "name": "F5",
                        "midi": 77,
                        "time": 31.75,
                        "velocity": 0.7086614173228346,
                        "duration": 0.25
                    },
                    {
                        "name": "E5",
                        "midi": 76,
                        "time": 32,
                        "velocity": 0.7086614173228346,
                        "duration": 0.25
                    },
                    {
                        "name": "G5",
                        "midi": 79,
                        "time": 32.25,
                        "velocity": 0.7086614173228346,
                        "duration": 0.25
                    },
                    {
                        "name": "C6",
                        "midi": 84,
                        "time": 32.5,
                        "velocity": 0.7086614173228346,
                        "duration": 0.25
                    },
                    {
                        "name": "B5",
                        "midi": 83,
                        "time": 32.75,
                        "velocity": 0.7086614173228346,
                        "duration": 0.25
                    },
                    {
                        "name": "C6",
                        "midi": 84,
                        "time": 33,
                        "velocity": 0.7086614173228346,
                        "duration": 0.25
                    },
                    {
                        "name": "E6",
                        "midi": 88,
                        "time": 33.25,
                        "velocity": 0.7086614173228346,
                        "duration": 0.25
                    },
                    {
                        "name": "C6",
                        "midi": 84,
                        "time": 33.5,
                        "velocity": 0.7086614173228346,
                        "duration": 0.25
                    },
                    {
                        "name": "G5",
                        "midi": 79,
                        "time": 33.75,
                        "velocity": 0.7086614173228346,
                        "duration": 0.25
                    },
                    {
                        "name": "C5",
                        "midi": 72,
                        "time": 34,
                        "velocity": 0.7086614173228346,
                        "duration": 0.25
                    },
                    {
                        "name": "G5",
                        "midi": 79,
                        "time": 34.25,
                        "velocity": 0.7086614173228346,
                        "duration": 0.25
                    },
                    {
                        "name": "C6",
                        "midi": 84,
                        "time": 34.5,
                        "velocity": 0.7086614173228346,
                        "duration": 0.25
                    },
                    {
                        "name": "B5",
                        "midi": 83,
                        "time": 34.75,
                        "velocity": 0.7086614173228346,
                        "duration": 0.25
                    },
                    {
                        "name": "C6",
                        "midi": 84,
                        "time": 35,
                        "velocity": 0.7086614173228346,
                        "duration": 0.25
                    },
                    {
                        "name": "E6",
                        "midi": 88,
                        "time": 35.25,
                        "velocity": 0.7086614173228346,
                        "duration": 0.25
                    },
                    {
                        "name": "C6",
                        "midi": 84,
                        "time": 35.5,
                        "velocity": 0.7086614173228346,
                        "duration": 0.25
                    },
                    {
                        "name": "G5",
                        "midi": 79,
                        "time": 35.75,
                        "velocity": 0.7086614173228346,
                        "duration": 0.25
                    },
                    {
                        "name": "C5",
                        "midi": 72,
                        "time": 36,
                        "velocity": 0.7086614173228346,
                        "duration": 0.25
                    },
                    {
                        "name": "G5",
                        "midi": 79,
                        "time": 36.25,
                        "velocity": 0.7086614173228346,
                        "duration": 0.25
                    },
                    {
                        "name": "A#5",
                        "midi": 82,
                        "time": 36.5,
                        "velocity": 0.7086614173228346,
                        "duration": 0.25
                    },
                    {
                        "name": "A5",
                        "midi": 81,
                        "time": 36.75,
                        "velocity": 0.7086614173228346,
                        "duration": 0.25
                    },
                    {
                        "name": "A#5",
                        "midi": 82,
                        "time": 37,
                        "velocity": 0.7086614173228346,
                        "duration": 0.25
                    },
                    {
                        "name": "E6",
                        "midi": 88,
                        "time": 37.25,
                        "velocity": 0.7086614173228346,
                        "duration": 0.25
                    },
                    {
                        "name": "A#5",
                        "midi": 82,
                        "time": 37.5,
                        "velocity": 0.7086614173228346,
                        "duration": 0.25
                    },
                    {
                        "name": "G5",
                        "midi": 79,
                        "time": 37.75,
                        "velocity": 0.7086614173228346,
                        "duration": 0.25
                    },
                    {
                        "name": "C5",
                        "midi": 72,
                        "time": 38,
                        "velocity": 0.7086614173228346,
                        "duration": 0.25
                    },
                    {
                        "name": "G5",
                        "midi": 79,
                        "time": 38.25,
                        "velocity": 0.7086614173228346,
                        "duration": 0.25
                    },
                    {
                        "name": "A#5",
                        "midi": 82,
                        "time": 38.5,
                        "velocity": 0.7086614173228346,
                        "duration": 0.25
                    },
                    {
                        "name": "A5",
                        "midi": 81,
                        "time": 38.75,
                        "velocity": 0.7086614173228346,
                        "duration": 0.25
                    },
                    {
                        "name": "A#5",
                        "midi": 82,
                        "time": 39,
                        "velocity": 0.7086614173228346,
                        "duration": 0.25
                    },
                    {
                        "name": "E6",
                        "midi": 88,
                        "time": 39.25,
                        "velocity": 0.7086614173228346,
                        "duration": 0.25
                    },
                    {
                        "name": "A#5",
                        "midi": 82,
                        "time": 39.5,
                        "velocity": 0.7086614173228346,
                        "duration": 0.25
                    },
                    {
                        "name": "G5",
                        "midi": 79,
                        "time": 39.75,
                        "velocity": 0.7086614173228346,
                        "duration": 0.25
                    },
                    {
                        "name": "C#5",
                        "midi": 73,
                        "time": 40,
                        "velocity": 0.7086614173228346,
                        "duration": 0.25
                    },
                    {
                        "name": "G5",
                        "midi": 79,
                        "time": 40.25,
                        "velocity": 0.7086614173228346,
                        "duration": 0.25
                    },
                    {
                        "name": "A#5",
                        "midi": 82,
                        "time": 40.5,
                        "velocity": 0.7086614173228346,
                        "duration": 0.25
                    },
                    {
                        "name": "A5",
                        "midi": 81,
                        "time": 40.75,
                        "velocity": 0.7086614173228346,
                        "duration": 0.25
                    },
                    {
                        "name": "A#5",
                        "midi": 82,
                        "time": 41,
                        "velocity": 0.7086614173228346,
                        "duration": 0.25
                    },
                    {
                        "name": "E6",
                        "midi": 88,
                        "time": 41.25,
                        "velocity": 0.7086614173228346,
                        "duration": 0.25
                    },
                    {
                        "name": "A#5",
                        "midi": 82,
                        "time": 41.5,
                        "velocity": 0.7086614173228346,
                        "duration": 0.25
                    },
                    {
                        "name": "G5",
                        "midi": 79,
                        "time": 41.75,
                        "velocity": 0.7086614173228346,
                        "duration": 0.25
                    },
                    {
                        "name": "C#5",
                        "midi": 73,
                        "time": 42,
                        "velocity": 0.7086614173228346,
                        "duration": 0.25
                    },
                    {
                        "name": "G5",
                        "midi": 79,
                        "time": 42.25,
                        "velocity": 0.7086614173228346,
                        "duration": 0.25
                    },
                    {
                        "name": "E5",
                        "midi": 76,
                        "time": 42.5,
                        "velocity": 0.7086614173228346,
                        "duration": 0.25
                    },
                    {
                        "name": "C#5",
                        "midi": 73,
                        "time": 42.75,
                        "velocity": 0.7086614173228346,
                        "duration": 0.25
                    },
                    {
                        "name": "A4",
                        "midi": 69,
                        "time": 43,
                        "velocity": 0.7086614173228346,
                        "duration": 0.25
                    },
                    {
                        "name": "G4",
                        "midi": 67,
                        "time": 43.25,
                        "velocity": 0.7086614173228346,
                        "duration": 0.25
                    },
                    {
                        "name": "F4",
                        "midi": 65,
                        "time": 43.5,
                        "velocity": 0.7086614173228346,
                        "duration": 0.25
                    },
                    {
                        "name": "E4",
                        "midi": 64,
                        "time": 43.75,
                        "velocity": 0.7086614173228346,
                        "duration": 0.25
                    },
                    {
                        "name": "D4",
                        "midi": 62,
                        "time": 44,
                        "velocity": 0.7086614173228346,
                        "duration": 0.25
                    },
                    {
                        "name": "G5",
                        "midi": 79,
                        "time": 44.25,
                        "velocity": 0.7086614173228346,
                        "duration": 0.25
                    },
                    {
                        "name": "F5",
                        "midi": 77,
                        "time": 44.5,
                        "velocity": 0.7086614173228346,
                        "duration": 0.25
                    },
                    {
                        "name": "E5",
                        "midi": 76,
                        "time": 44.75,
                        "velocity": 0.7086614173228346,
                        "duration": 0.25
                    },
                    {
                        "name": "F5",
                        "midi": 77,
                        "time": 45,
                        "velocity": 0.7086614173228346,
                        "duration": 0.25
                    },
                    {
                        "name": "A5",
                        "midi": 81,
                        "time": 45.25,
                        "velocity": 0.7086614173228346,
                        "duration": 0.25
                    },
                    {
                        "name": "F5",
                        "midi": 77,
                        "time": 45.5,
                        "velocity": 0.7086614173228346,
                        "duration": 0.25
                    },
                    {
                        "name": "D5",
                        "midi": 74,
                        "time": 45.75,
                        "velocity": 0.7086614173228346,
                        "duration": 0.25
                    },
                    {
                        "name": "B4",
                        "midi": 71,
                        "time": 46,
                        "velocity": 0.7086614173228346,
                        "duration": 0.25
                    },
                    {
                        "name": "G#4",
                        "midi": 68,
                        "time": 46.25,
                        "velocity": 0.7086614173228346,
                        "duration": 0.25
                    },
                    {
                        "name": "B4",
                        "midi": 71,
                        "time": 46.5,
                        "velocity": 0.7086614173228346,
                        "duration": 0.25
                    },
                    {
                        "name": "D5",
                        "midi": 74,
                        "time": 46.75,
                        "velocity": 0.7086614173228346,
                        "duration": 0.25
                    },
                    {
                        "name": "E5",
                        "midi": 76,
                        "time": 47,
                        "velocity": 0.7086614173228346,
                        "duration": 0.25
                    },
                    {
                        "name": "D5",
                        "midi": 74,
                        "time": 47.25,
                        "velocity": 0.7086614173228346,
                        "duration": 0.25
                    },
                    {
                        "name": "C5",
                        "midi": 72,
                        "time": 47.5,
                        "velocity": 0.7086614173228346,
                        "duration": 0.25
                    },
                    {
                        "name": "B4",
                        "midi": 71,
                        "time": 47.75,
                        "velocity": 0.7086614173228346,
                        "duration": 0.25
                    },
                    {
                        "name": "C5",
                        "midi": 72,
                        "time": 48,
                        "velocity": 0.7086614173228346,
                        "duration": 0.25
                    },
                    {
                        "name": "E5",
                        "midi": 76,
                        "time": 48.25,
                        "velocity": 0.7086614173228346,
                        "duration": 0.25
                    },
                    {
                        "name": "A5",
                        "midi": 81,
                        "time": 48.5,
                        "velocity": 0.7086614173228346,
                        "duration": 0.25
                    },
                    {
                        "name": "G#5",
                        "midi": 80,
                        "time": 48.75,
                        "velocity": 0.7086614173228346,
                        "duration": 0.25
                    },
                    {
                        "name": "A5",
                        "midi": 81,
                        "time": 49,
                        "velocity": 0.7086614173228346,
                        "duration": 0.25
                    },
                    {
                        "name": "C6",
                        "midi": 84,
                        "time": 49.25,
                        "velocity": 0.7086614173228346,
                        "duration": 0.25
                    },
                    {
                        "name": "A5",
                        "midi": 81,
                        "time": 49.5,
                        "velocity": 0.7086614173228346,
                        "duration": 0.25
                    },
                    {
                        "name": "F#5",
                        "midi": 78,
                        "time": 49.75,
                        "velocity": 0.7086614173228346,
                        "duration": 0.25
                    },
                    {
                        "name": "D#5",
                        "midi": 75,
                        "time": 50,
                        "velocity": 0.7086614173228346,
                        "duration": 0.25
                    },
                    {
                        "name": "B4",
                        "midi": 71,
                        "time": 50.25,
                        "velocity": 0.7086614173228346,
                        "duration": 0.25
                    },
                    {
                        "name": "D#5",
                        "midi": 75,
                        "time": 50.5,
                        "velocity": 0.7086614173228346,
                        "duration": 0.25
                    },
                    {
                        "name": "F#5",
                        "midi": 78,
                        "time": 50.75,
                        "velocity": 0.7086614173228346,
                        "duration": 0.25
                    },
                    {
                        "name": "B5",
                        "midi": 83,
                        "time": 51,
                        "velocity": 0.7086614173228346,
                        "duration": 0.25
                    },
                    {
                        "name": "A5",
                        "midi": 81,
                        "time": 51.25,
                        "velocity": 0.7086614173228346,
                        "duration": 0.25
                    },
                    {
                        "name": "G5",
                        "midi": 79,
                        "time": 51.5,
                        "velocity": 0.7086614173228346,
                        "duration": 0.25
                    },
                    {
                        "name": "F#5",
                        "midi": 78,
                        "time": 51.75,
                        "velocity": 0.7086614173228346,
                        "duration": 0.25
                    },
                    {
                        "name": "G5",
                        "midi": 79,
                        "time": 52,
                        "velocity": 0.7086614173228346,
                        "duration": 0.25
                    },
                    {
                        "name": "F#5",
                        "midi": 78,
                        "time": 52.25,
                        "velocity": 0.7086614173228346,
                        "duration": 0.25
                    },
                    {
                        "name": "E5",
                        "midi": 76,
                        "time": 52.5,
                        "velocity": 0.7086614173228346,
                        "duration": 0.25
                    },
                    {
                        "name": "G5",
                        "midi": 79,
                        "time": 52.75,
                        "velocity": 0.7086614173228346,
                        "duration": 0.25
                    },
                    {
                        "name": "A4",
                        "midi": 69,
                        "time": 53,
                        "velocity": 0.7086614173228346,
                        "duration": 0.25
                    },
                    {
                        "name": "E5",
                        "midi": 76,
                        "time": 53.25,
                        "velocity": 0.7086614173228346,
                        "duration": 0.25
                    },
                    {
                        "name": "G5",
                        "midi": 79,
                        "time": 53.5,
                        "velocity": 0.7086614173228346,
                        "duration": 0.25
                    },
                    {
                        "name": "C6",
                        "midi": 84,
                        "time": 53.75,
                        "velocity": 0.7086614173228346,
                        "duration": 0.25
                    },
                    {
                        "name": "F#5",
                        "midi": 78,
                        "time": 54,
                        "velocity": 0.7086614173228346,
                        "duration": 0.25
                    },
                    {
                        "name": "E5",
                        "midi": 76,
                        "time": 54.25,
                        "velocity": 0.7086614173228346,
                        "duration": 0.25
                    },
                    {
                        "name": "D5",
                        "midi": 74,
                        "time": 54.5,
                        "velocity": 0.7086614173228346,
                        "duration": 0.25
                    },
                    {
                        "name": "F#5",
                        "midi": 78,
                        "time": 54.75,
                        "velocity": 0.7086614173228346,
                        "duration": 0.25
                    },
                    {
                        "name": "G4",
                        "midi": 67,
                        "time": 55,
                        "velocity": 0.7086614173228346,
                        "duration": 0.25
                    },
                    {
                        "name": "D5",
                        "midi": 74,
                        "time": 55.25,
                        "velocity": 0.7086614173228346,
                        "duration": 0.25
                    },
                    {
                        "name": "F#5",
                        "midi": 78,
                        "time": 55.5,
                        "velocity": 0.7086614173228346,
                        "duration": 0.25
                    },
                    {
                        "name": "B5",
                        "midi": 83,
                        "time": 55.75,
                        "velocity": 0.7086614173228346,
                        "duration": 0.25
                    },
                    {
                        "name": "E5",
                        "midi": 76,
                        "time": 56,
                        "velocity": 0.7086614173228346,
                        "duration": 0.25
                    },
                    {
                        "name": "D5",
                        "midi": 74,
                        "time": 56.25,
                        "velocity": 0.7086614173228346,
                        "duration": 0.25
                    },
                    {
                        "name": "C5",
                        "midi": 72,
                        "time": 56.5,
                        "velocity": 0.7086614173228346,
                        "duration": 0.25
                    },
                    {
                        "name": "E5",
                        "midi": 76,
                        "time": 56.75,
                        "velocity": 0.7086614173228346,
                        "duration": 0.25
                    },
                    {
                        "name": "F#4",
                        "midi": 66,
                        "time": 57,
                        "velocity": 0.7086614173228346,
                        "duration": 0.25
                    },
                    {
                        "name": "E5",
                        "midi": 76,
                        "time": 57.25,
                        "velocity": 0.7086614173228346,
                        "duration": 0.25
                    },
                    {
                        "name": "F#5",
                        "midi": 78,
                        "time": 57.5,
                        "velocity": 0.7086614173228346,
                        "duration": 0.25
                    },
                    {
                        "name": "A5",
                        "midi": 81,
                        "time": 57.75,
                        "velocity": 0.7086614173228346,
                        "duration": 0.25
                    },
                    {
                        "name": "D#5",
                        "midi": 75,
                        "time": 58,
                        "velocity": 0.7086614173228346,
                        "duration": 0.25
                    },
                    {
                        "name": "B4",
                        "midi": 71,
                        "time": 58.25,
                        "velocity": 0.7086614173228346,
                        "duration": 0.25
                    },
                    {
                        "name": "C5",
                        "midi": 72,
                        "time": 58.5,
                        "velocity": 0.7086614173228346,
                        "duration": 0.25
                    },
                    {
                        "name": "A4",
                        "midi": 69,
                        "time": 58.75,
                        "velocity": 0.7086614173228346,
                        "duration": 0.25
                    },
                    {
                        "name": "D#4",
                        "midi": 63,
                        "time": 59,
                        "velocity": 0.7086614173228346,
                        "duration": 0.25
                    },
                    {
                        "name": "C5",
                        "midi": 72,
                        "time": 59.25,
                        "velocity": 0.7086614173228346,
                        "duration": 0.25
                    },
                    {
                        "name": "B4",
                        "midi": 71,
                        "time": 59.5,
                        "velocity": 0.7086614173228346,
                        "duration": 0.25
                    },
                    {
                        "name": "A4",
                        "midi": 69,
                        "time": 59.75,
                        "velocity": 0.7086614173228346,
                        "duration": 0.25
                    },
                    {
                        "name": "G4",
                        "midi": 67,
                        "time": 60,
                        "velocity": 0.7086614173228346,
                        "duration": 0.25
                    },
                    {
                        "name": "E5",
                        "midi": 76,
                        "time": 60.25,
                        "velocity": 0.7086614173228346,
                        "duration": 0.25
                    },
                    {
                        "name": "F5",
                        "midi": 77,
                        "time": 60.5,
                        "velocity": 0.7086614173228346,
                        "duration": 0.25
                    },
                    {
                        "name": "D5",
                        "midi": 74,
                        "time": 60.75,
                        "velocity": 0.7086614173228346,
                        "duration": 0.25
                    },
                    {
                        "name": "G#4",
                        "midi": 68,
                        "time": 61,
                        "velocity": 0.7086614173228346,
                        "duration": 0.25
                    },
                    {
                        "name": "F5",
                        "midi": 77,
                        "time": 61.25,
                        "velocity": 0.7086614173228346,
                        "duration": 0.25
                    },
                    {
                        "name": "E5",
                        "midi": 76,
                        "time": 61.5,
                        "velocity": 0.7086614173228346,
                        "duration": 0.25
                    },
                    {
                        "name": "D5",
                        "midi": 74,
                        "time": 61.75,
                        "velocity": 0.7086614173228346,
                        "duration": 0.25
                    },
                    {
                        "name": "A4",
                        "midi": 69,
                        "time": 62,
                        "velocity": 0.7086614173228346,
                        "duration": 0.25
                    },
                    {
                        "name": "F#5",
                        "midi": 78,
                        "time": 62.25,
                        "velocity": 0.7086614173228346,
                        "duration": 0.25
                    },
                    {
                        "name": "G5",
                        "midi": 79,
                        "time": 62.5,
                        "velocity": 0.7086614173228346,
                        "duration": 0.25
                    },
                    {
                        "name": "E5",
                        "midi": 76,
                        "time": 62.75,
                        "velocity": 0.7086614173228346,
                        "duration": 0.25
                    },
                    {
                        "name": "A#4",
                        "midi": 70,
                        "time": 63,
                        "velocity": 0.7086614173228346,
                        "duration": 0.25
                    },
                    {
                        "name": "G5",
                        "midi": 79,
                        "time": 63.25,
                        "velocity": 0.7086614173228346,
                        "duration": 0.25
                    },
                    {
                        "name": "F#5",
                        "midi": 78,
                        "time": 63.5,
                        "velocity": 0.7086614173228346,
                        "duration": 0.25
                    },
                    {
                        "name": "E5",
                        "midi": 76,
                        "time": 63.75,
                        "velocity": 0.7086614173228346,
                        "duration": 0.25
                    },
                    {
                        "name": "D#5",
                        "midi": 75,
                        "time": 64,
                        "velocity": 0.7086614173228346,
                        "duration": 0.25
                    },
                    {
                        "name": "B5",
                        "midi": 83,
                        "time": 64.25,
                        "velocity": 0.7086614173228346,
                        "duration": 0.25
                    },
                    {
                        "name": "G#5",
                        "midi": 80,
                        "time": 64.5,
                        "velocity": 0.7086614173228346,
                        "duration": 0.25
                    },
                    {
                        "name": "D5",
                        "midi": 74,
                        "time": 64.75,
                        "velocity": 0.7086614173228346,
                        "duration": 0.25
                    },
                    {
                        "name": "C#5",
                        "midi": 73,
                        "time": 65,
                        "velocity": 0.7086614173228346,
                        "duration": 0.25
                    },
                    {
                        "name": "A5",
                        "midi": 81,
                        "time": 65.25,
                        "velocity": 0.7086614173228346,
                        "duration": 0.25
                    },
                    {
                        "name": "F#5",
                        "midi": 78,
                        "time": 65.5,
                        "velocity": 0.7086614173228346,
                        "duration": 0.25
                    },
                    {
                        "name": "C5",
                        "midi": 72,
                        "time": 65.75,
                        "velocity": 0.7086614173228346,
                        "duration": 0.25
                    },
                    {
                        "name": "B4",
                        "midi": 71,
                        "time": 66,
                        "velocity": 0.7086614173228346,
                        "duration": 0.25
                    },
                    {
                        "name": "G5",
                        "midi": 79,
                        "time": 66.25,
                        "velocity": 0.7086614173228346,
                        "duration": 0.25
                    },
                    {
                        "name": "E5",
                        "midi": 76,
                        "time": 66.5,
                        "velocity": 0.7086614173228346,
                        "duration": 0.25
                    },
                    {
                        "name": "A#4",
                        "midi": 70,
                        "time": 66.75,
                        "velocity": 0.7086614173228346,
                        "duration": 0.25
                    },
                    {
                        "name": "A4",
                        "midi": 69,
                        "time": 67,
                        "velocity": 0.7086614173228346,
                        "duration": 0.25
                    },
                    {
                        "name": "F5",
                        "midi": 77,
                        "time": 67.25,
                        "velocity": 0.7086614173228346,
                        "duration": 0.25
                    },
                    {
                        "name": "D#5",
                        "midi": 75,
                        "time": 67.5,
                        "velocity": 0.7086614173228346,
                        "duration": 0.25
                    },
                    {
                        "name": "A4",
                        "midi": 69,
                        "time": 67.75,
                        "velocity": 0.7086614173228346,
                        "duration": 0.25
                    },
                    {
                        "name": "G4",
                        "midi": 67,
                        "time": 68,
                        "velocity": 0.7086614173228346,
                        "duration": 0.25
                    },
                    {
                        "name": "E5",
                        "midi": 76,
                        "time": 68.25,
                        "velocity": 0.7086614173228346,
                        "duration": 0.25
                    },
                    {
                        "name": "C5",
                        "midi": 72,
                        "time": 68.5,
                        "velocity": 0.7086614173228346,
                        "duration": 0.25
                    },
                    {
                        "name": "A4",
                        "midi": 69,
                        "time": 68.75,
                        "velocity": 0.7086614173228346,
                        "duration": 0.25
                    },
                    {
                        "name": "F#4",
                        "midi": 66,
                        "time": 69,
                        "velocity": 0.7086614173228346,
                        "duration": 0.25
                    },
                    {
                        "name": "C5",
                        "midi": 72,
                        "time": 69.25,
                        "velocity": 0.7086614173228346,
                        "duration": 0.25
                    },
                    {
                        "name": "A4",
                        "midi": 69,
                        "time": 69.5,
                        "velocity": 0.7086614173228346,
                        "duration": 0.25
                    },
                    {
                        "name": "F#4",
                        "midi": 66,
                        "time": 69.75,
                        "velocity": 0.7086614173228346,
                        "duration": 0.25
                    },
                    {
                        "name": "D#4",
                        "midi": 63,
                        "time": 70,
                        "velocity": 0.7086614173228346,
                        "duration": 0.25
                    },
                    {
                        "name": "F#4",
                        "midi": 66,
                        "time": 70.25,
                        "velocity": 0.7086614173228346,
                        "duration": 0.25
                    },
                    {
                        "name": "A4",
                        "midi": 69,
                        "time": 70.5,
                        "velocity": 0.7086614173228346,
                        "duration": 0.25
                    },
                    {
                        "name": "C5",
                        "midi": 72,
                        "time": 70.75,
                        "velocity": 0.7086614173228346,
                        "duration": 0.25
                    },
                    {
                        "name": "B4",
                        "midi": 71,
                        "time": 71,
                        "velocity": 0.7086614173228346,
                        "duration": 0.25
                    },
                    {
                        "name": "A5",
                        "midi": 81,
                        "time": 71.25,
                        "velocity": 0.7086614173228346,
                        "duration": 0.25
                    },
                    {
                        "name": "G5",
                        "midi": 79,
                        "time": 71.5,
                        "velocity": 0.7086614173228346,
                        "duration": 0.25
                    },
                    {
                        "name": "F#5",
                        "midi": 78,
                        "time": 71.75,
                        "velocity": 0.7086614173228346,
                        "duration": 0.25
                    },
                    {
                        "name": "G5",
                        "midi": 79,
                        "time": 72,
                        "velocity": 0.7086614173228346,
                        "duration": 0.25
                    },
                    {
                        "name": "F#5",
                        "midi": 78,
                        "time": 72.25,
                        "velocity": 0.7086614173228346,
                        "duration": 0.125
                    },
                    {
                        "name": "E5",
                        "midi": 76,
                        "time": 72.375,
                        "velocity": 0.7086614173228346,
                        "duration": 0.125
                    },
                    {
                        "name": "B5",
                        "midi": 83,
                        "time": 72.5,
                        "velocity": 0.7086614173228346,
                        "duration": 0.25
                    },
                    {
                        "name": "C6",
                        "midi": 84,
                        "time": 72.75,
                        "velocity": 0.7086614173228346,
                        "duration": 0.25
                    },
                    {
                        "name": "F#5",
                        "midi": 78,
                        "time": 73,
                        "velocity": 0.7086614173228346,
                        "duration": 0.75
                    },
                    {
                        "name": "E5",
                        "midi": 76,
                        "time": 73.75,
                        "velocity": 0.7086614173228346,
                        "duration": 0.25
                    },
                    {
                        "name": "E5",
                        "midi": 76,
                        "time": 74,
                        "velocity": 0.7086614173228346,
                        "duration": 2
                    },
                    {
                        "name": "G5",
                        "midi": 79,
                        "time": 76,
                        "velocity": 0.7086614173228346,
                        "duration": 0.25
                    },
                    {
                        "name": "F#5",
                        "midi": 78,
                        "time": 76.25,
                        "velocity": 0.7086614173228346,
                        "duration": 0.125
                    },
                    {
                        "name": "E5",
                        "midi": 76,
                        "time": 76.375,
                        "velocity": 0.7086614173228346,
                        "duration": 0.125
                    },
                    {
                        "name": "B5",
                        "midi": 83,
                        "time": 76.5,
                        "velocity": 0.7086614173228346,
                        "duration": 0.25
                    },
                    {
                        "name": "C6",
                        "midi": 84,
                        "time": 76.75,
                        "velocity": 0.7086614173228346,
                        "duration": 0.25
                    },
                    {
                        "name": "F#5",
                        "midi": 78,
                        "time": 77,
                        "velocity": 0.7086614173228346,
                        "duration": 0.75
                    },
                    {
                        "name": "E5",
                        "midi": 76,
                        "time": 77.75,
                        "velocity": 0.7086614173228346,
                        "duration": 0.25
                    },
                    {
                        "name": "E5",
                        "midi": 76,
                        "time": 78,
                        "velocity": 0.7086614173228346,
                        "duration": 0.25
                    },
                    {
                        "name": "B4",
                        "midi": 71,
                        "time": 78.25,
                        "velocity": 0.7086614173228346,
                        "duration": 0.25
                    },
                    {
                        "name": "C5",
                        "midi": 72,
                        "time": 78.5,
                        "velocity": 0.7086614173228346,
                        "duration": 0.25
                    },
                    {
                        "name": "A4",
                        "midi": 69,
                        "time": 78.75,
                        "velocity": 0.7086614173228346,
                        "duration": 0.25
                    },
                    {
                        "name": "B4",
                        "midi": 71,
                        "time": 79,
                        "velocity": 0.7086614173228346,
                        "duration": 0.25
                    },
                    {
                        "name": "G4",
                        "midi": 67,
                        "time": 79.25,
                        "velocity": 0.7086614173228346,
                        "duration": 0.25
                    },
                    {
                        "name": "A4",
                        "midi": 69,
                        "time": 79.5,
                        "velocity": 0.7086614173228346,
                        "duration": 0.25
                    },
                    {
                        "name": "B4",
                        "midi": 71,
                        "time": 79.75,
                        "velocity": 0.7086614173228346,
                        "duration": 0.25
                    },
                    {
                        "name": "E4",
                        "midi": 64,
                        "time": 80,
                        "velocity": 0.7086614173228346,
                        "duration": 0.25
                    },
                    {
                        "name": "B4",
                        "midi": 71,
                        "time": 80.25,
                        "velocity": 0.7086614173228346,
                        "duration": 0.25
                    },
                    {
                        "name": "E5",
                        "midi": 76,
                        "time": 80.5,
                        "velocity": 0.7086614173228346,
                        "duration": 0.25
                    },
                    {
                        "name": "D#5",
                        "midi": 75,
                        "time": 80.75,
                        "velocity": 0.7086614173228346,
                        "duration": 0.25
                    },
                    {
                        "name": "E5",
                        "midi": 76,
                        "time": 81,
                        "velocity": 0.7086614173228346,
                        "duration": 0.25
                    },
                    {
                        "name": "G5",
                        "midi": 79,
                        "time": 81.25,
                        "velocity": 0.7086614173228346,
                        "duration": 0.25
                    },
                    {
                        "name": "E5",
                        "midi": 76,
                        "time": 81.5,
                        "velocity": 0.7086614173228346,
                        "duration": 0.25
                    },
                    {
                        "name": "B4",
                        "midi": 71,
                        "time": 81.75,
                        "velocity": 0.7086614173228346,
                        "duration": 0.25
                    },
                    {
                        "name": "F#4",
                        "midi": 66,
                        "time": 82,
                        "velocity": 0.7086614173228346,
                        "duration": 0.25
                    },
                    {
                        "name": "B4",
                        "midi": 71,
                        "time": 82.25,
                        "velocity": 0.7086614173228346,
                        "duration": 0.25
                    },
                    {
                        "name": "E5",
                        "midi": 76,
                        "time": 82.5,
                        "velocity": 0.7086614173228346,
                        "duration": 0.25
                    },
                    {
                        "name": "D#5",
                        "midi": 75,
                        "time": 82.75,
                        "velocity": 0.7086614173228346,
                        "duration": 0.25
                    },
                    {
                        "name": "E5",
                        "midi": 76,
                        "time": 83,
                        "velocity": 0.7086614173228346,
                        "duration": 0.25
                    },
                    {
                        "name": "G5",
                        "midi": 79,
                        "time": 83.25,
                        "velocity": 0.7086614173228346,
                        "duration": 0.25
                    },
                    {
                        "name": "E5",
                        "midi": 76,
                        "time": 83.5,
                        "velocity": 0.7086614173228346,
                        "duration": 0.25
                    },
                    {
                        "name": "B4",
                        "midi": 71,
                        "time": 83.75,
                        "velocity": 0.7086614173228346,
                        "duration": 0.25
                    },
                    {
                        "name": "E4",
                        "midi": 64,
                        "time": 84,
                        "velocity": 0.7086614173228346,
                        "duration": 0.25
                    },
                    {
                        "name": "G4",
                        "midi": 67,
                        "time": 84.25,
                        "velocity": 0.7086614173228346,
                        "duration": 0.25
                    },
                    {
                        "name": "B4",
                        "midi": 71,
                        "time": 84.5,
                        "velocity": 0.7086614173228346,
                        "duration": 0.25
                    },
                    {
                        "name": "C5",
                        "midi": 72,
                        "time": 84.75,
                        "velocity": 0.7086614173228346,
                        "duration": 0.25
                    },
                    {
                        "name": "D#4",
                        "midi": 63,
                        "time": 85,
                        "velocity": 0.7086614173228346,
                        "duration": 0.25
                    },
                    {
                        "name": "C5",
                        "midi": 72,
                        "time": 85.25,
                        "velocity": 0.7086614173228346,
                        "duration": 0.25
                    },
                    {
                        "name": "B4",
                        "midi": 71,
                        "time": 85.5,
                        "velocity": 0.7086614173228346,
                        "duration": 0.25
                    },
                    {
                        "name": "A4",
                        "midi": 69,
                        "time": 85.75,
                        "velocity": 0.7086614173228346,
                        "duration": 0.25
                    },
                    {
                        "name": "G4",
                        "midi": 67,
                        "time": 86,
                        "velocity": 0.7086614173228346,
                        "duration": 0.25
                    },
                    {
                        "name": "B4",
                        "midi": 71,
                        "time": 86.25,
                        "velocity": 0.7086614173228346,
                        "duration": 0.25
                    },
                    {
                        "name": "D#5",
                        "midi": 75,
                        "time": 86.5,
                        "velocity": 0.7086614173228346,
                        "duration": 0.25
                    },
                    {
                        "name": "E5",
                        "midi": 76,
                        "time": 86.75,
                        "velocity": 0.7086614173228346,
                        "duration": 0.25
                    },
                    {
                        "name": "B4",
                        "midi": 71,
                        "time": 87,
                        "velocity": 0.7086614173228346,
                        "duration": 0.25
                    },
                    {
                        "name": "A4",
                        "midi": 69,
                        "time": 87.25,
                        "velocity": 0.7086614173228346,
                        "duration": 0.25
                    },
                    {
                        "name": "G4",
                        "midi": 67,
                        "time": 87.5,
                        "velocity": 0.7086614173228346,
                        "duration": 0.25
                    },
                    {
                        "name": "F#4",
                        "midi": 66,
                        "time": 87.75,
                        "velocity": 0.7086614173228346,
                        "duration": 0.25
                    },
                    {
                        "name": "E4",
                        "midi": 64,
                        "time": 88,
                        "velocity": 0.7086614173228346,
                        "duration": 0.25
                    },
                    {
                        "name": "G4",
                        "midi": 67,
                        "time": 88.25,
                        "velocity": 0.7086614173228346,
                        "duration": 0.25
                    },
                    {
                        "name": "B4",
                        "midi": 71,
                        "time": 88.5,
                        "velocity": 0.7086614173228346,
                        "duration": 0.25
                    },
                    {
                        "name": "C5",
                        "midi": 72,
                        "time": 88.75,
                        "velocity": 0.7086614173228346,
                        "duration": 0.25
                    },
                    {
                        "name": "D#4",
                        "midi": 63,
                        "time": 89,
                        "velocity": 0.7086614173228346,
                        "duration": 0.25
                    },
                    {
                        "name": "C5",
                        "midi": 72,
                        "time": 89.25,
                        "velocity": 0.7086614173228346,
                        "duration": 0.25
                    },
                    {
                        "name": "B4",
                        "midi": 71,
                        "time": 89.5,
                        "velocity": 0.7086614173228346,
                        "duration": 0.25
                    },
                    {
                        "name": "A4",
                        "midi": 69,
                        "time": 89.75,
                        "velocity": 0.7086614173228346,
                        "duration": 0.25
                    },
                    {
                        "name": "G4",
                        "midi": 67,
                        "time": 90,
                        "velocity": 0.7086614173228346,
                        "duration": 0.25
                    },
                    {
                        "name": "B4",
                        "midi": 71,
                        "time": 90.25,
                        "velocity": 0.7086614173228346,
                        "duration": 0.25
                    },
                    {
                        "name": "D#5",
                        "midi": 75,
                        "time": 90.5,
                        "velocity": 0.7086614173228346,
                        "duration": 0.25
                    },
                    {
                        "name": "E5",
                        "midi": 76,
                        "time": 90.75,
                        "velocity": 0.7086614173228346,
                        "duration": 0.25
                    },
                    {
                        "name": "B4",
                        "midi": 71,
                        "time": 91,
                        "velocity": 0.7086614173228346,
                        "duration": 0.25
                    },
                    {
                        "name": "A5",
                        "midi": 81,
                        "time": 91.25,
                        "velocity": 0.7086614173228346,
                        "duration": 0.25
                    },
                    {
                        "name": "G5",
                        "midi": 79,
                        "time": 91.5,
                        "velocity": 0.7086614173228346,
                        "duration": 0.25
                    },
                    {
                        "name": "F#5",
                        "midi": 78,
                        "time": 91.75,
                        "velocity": 0.7086614173228346,
                        "duration": 0.25
                    },
                    {
                        "name": "E5",
                        "midi": 76,
                        "time": 92,
                        "velocity": 0.7086614173228346,
                        "duration": 0.25
                    },
                    {
                        "name": "G5",
                        "midi": 79,
                        "time": 92.25,
                        "velocity": 0.7086614173228346,
                        "duration": 0.25
                    },
                    {
                        "name": "D#5",
                        "midi": 75,
                        "time": 92.5,
                        "velocity": 0.7086614173228346,
                        "duration": 0.25
                    },
                    {
                        "name": "E5",
                        "midi": 76,
                        "time": 92.75,
                        "velocity": 0.7086614173228346,
                        "duration": 0.25
                    },
                    {
                        "name": "B5",
                        "midi": 83,
                        "time": 93,
                        "velocity": 0.7086614173228346,
                        "duration": 0.25
                    },
                    {
                        "name": "G#5",
                        "midi": 80,
                        "time": 93.25,
                        "velocity": 0.7086614173228346,
                        "duration": 0.25
                    },
                    {
                        "name": "D5",
                        "midi": 74,
                        "time": 93.5,
                        "velocity": 0.7086614173228346,
                        "duration": 0.25
                    },
                    {
                        "name": "E5",
                        "midi": 76,
                        "time": 93.75,
                        "velocity": 0.7086614173228346,
                        "duration": 0.25
                    },
                    {
                        "name": "C5",
                        "midi": 72,
                        "time": 94,
                        "velocity": 0.7086614173228346,
                        "duration": 0.25
                    },
                    {
                        "name": "A5",
                        "midi": 81,
                        "time": 94.25,
                        "velocity": 0.7086614173228346,
                        "duration": 0.25
                    },
                    {
                        "name": "D#5",
                        "midi": 75,
                        "time": 94.5,
                        "velocity": 0.7086614173228346,
                        "duration": 0.25
                    },
                    {
                        "name": "E5",
                        "midi": 76,
                        "time": 94.75,
                        "velocity": 0.7086614173228346,
                        "duration": 0.25
                    },
                    {
                        "name": "G#4",
                        "midi": 68,
                        "time": 95,
                        "velocity": 0.7086614173228346,
                        "duration": 0.25
                    },
                    {
                        "name": "F5",
                        "midi": 77,
                        "time": 95.25,
                        "velocity": 0.7086614173228346,
                        "duration": 0.25
                    },
                    {
                        "name": "E5",
                        "midi": 76,
                        "time": 95.5,
                        "velocity": 0.7086614173228346,
                        "duration": 0.25
                    },
                    {
                        "name": "D5",
                        "midi": 74,
                        "time": 95.75,
                        "velocity": 0.7086614173228346,
                        "duration": 0.25
                    },
                    {
                        "name": "A4",
                        "midi": 69,
                        "time": 96,
                        "velocity": 0.7086614173228346,
                        "duration": 0.25
                    },
                    {
                        "name": "C5",
                        "midi": 72,
                        "time": 96.25,
                        "velocity": 0.7086614173228346,
                        "duration": 0.25
                    },
                    {
                        "name": "G#4",
                        "midi": 68,
                        "time": 96.5,
                        "velocity": 0.7086614173228346,
                        "duration": 0.25
                    },
                    {
                        "name": "A4",
                        "midi": 69,
                        "time": 96.75,
                        "velocity": 0.7086614173228346,
                        "duration": 0.25
                    },
                    {
                        "name": "E5",
                        "midi": 76,
                        "time": 97,
                        "velocity": 0.7086614173228346,
                        "duration": 0.25
                    },
                    {
                        "name": "C#5",
                        "midi": 73,
                        "time": 97.25,
                        "velocity": 0.7086614173228346,
                        "duration": 0.25
                    },
                    {
                        "name": "G4",
                        "midi": 67,
                        "time": 97.5,
                        "velocity": 0.7086614173228346,
                        "duration": 0.25
                    },
                    {
                        "name": "A4",
                        "midi": 69,
                        "time": 97.75,
                        "velocity": 0.7086614173228346,
                        "duration": 0.25
                    },
                    {
                        "name": "F4",
                        "midi": 65,
                        "time": 98,
                        "velocity": 0.7086614173228346,
                        "duration": 0.25
                    },
                    {
                        "name": "D5",
                        "midi": 74,
                        "time": 98.25,
                        "velocity": 0.7086614173228346,
                        "duration": 0.25
                    },
                    {
                        "name": "G#4",
                        "midi": 68,
                        "time": 98.5,
                        "velocity": 0.7086614173228346,
                        "duration": 0.25
                    },
                    {
                        "name": "A4",
                        "midi": 69,
                        "time": 98.75,
                        "velocity": 0.7086614173228346,
                        "duration": 0.25
                    },
                    {
                        "name": "C#5",
                        "midi": 73,
                        "time": 99,
                        "velocity": 0.7086614173228346,
                        "duration": 0.25
                    },
                    {
                        "name": "A#5",
                        "midi": 82,
                        "time": 99.25,
                        "velocity": 0.7086614173228346,
                        "duration": 0.25
                    },
                    {
                        "name": "A5",
                        "midi": 81,
                        "time": 99.5,
                        "velocity": 0.7086614173228346,
                        "duration": 0.25
                    },
                    {
                        "name": "G5",
                        "midi": 79,
                        "time": 99.75,
                        "velocity": 0.7086614173228346,
                        "duration": 0.25
                    },
                    {
                        "name": "F5",
                        "midi": 77,
                        "time": 100,
                        "velocity": 0.7086614173228346,
                        "duration": 0.25
                    },
                    {
                        "name": "A4",
                        "midi": 69,
                        "time": 100.25,
                        "velocity": 0.7086614173228346,
                        "duration": 0.25
                    },
                    {
                        "name": "D5",
                        "midi": 74,
                        "time": 100.5,
                        "velocity": 0.7086614173228346,
                        "duration": 0.25
                    },
                    {
                        "name": "C#5",
                        "midi": 73,
                        "time": 100.75,
                        "velocity": 0.7086614173228346,
                        "duration": 0.25
                    },
                    {
                        "name": "D5",
                        "midi": 74,
                        "time": 101,
                        "velocity": 0.7086614173228346,
                        "duration": 0.25
                    },
                    {
                        "name": "F5",
                        "midi": 77,
                        "time": 101.25,
                        "velocity": 0.7086614173228346,
                        "duration": 0.25
                    },
                    {
                        "name": "D5",
                        "midi": 74,
                        "time": 101.5,
                        "velocity": 0.7086614173228346,
                        "duration": 0.25
                    },
                    {
                        "name": "A4",
                        "midi": 69,
                        "time": 101.75,
                        "velocity": 0.7086614173228346,
                        "duration": 0.25
                    },
                    {
                        "name": "D4",
                        "midi": 62,
                        "time": 102,
                        "velocity": 0.7086614173228346,
                        "duration": 0.25
                    },
                    {
                        "name": "A4",
                        "midi": 69,
                        "time": 102.25,
                        "velocity": 0.7086614173228346,
                        "duration": 0.25
                    },
                    {
                        "name": "D5",
                        "midi": 74,
                        "time": 102.5,
                        "velocity": 0.7086614173228346,
                        "duration": 0.25
                    },
                    {
                        "name": "C#5",
                        "midi": 73,
                        "time": 102.75,
                        "velocity": 0.7086614173228346,
                        "duration": 0.25
                    },
                    {
                        "name": "D5",
                        "midi": 74,
                        "time": 103,
                        "velocity": 0.7086614173228346,
                        "duration": 0.25
                    },
                    {
                        "name": "F5",
                        "midi": 77,
                        "time": 103.25,
                        "velocity": 0.7086614173228346,
                        "duration": 0.25
                    },
                    {
                        "name": "D5",
                        "midi": 74,
                        "time": 103.5,
                        "velocity": 0.7086614173228346,
                        "duration": 0.25
                    },
                    {
                        "name": "A4",
                        "midi": 69,
                        "time": 103.75,
                        "velocity": 0.7086614173228346,
                        "duration": 0.25
                    },
                    {
                        "name": "D4",
                        "midi": 62,
                        "time": 104,
                        "velocity": 0.7086614173228346,
                        "duration": 0.25
                    },
                    {
                        "name": "A4",
                        "midi": 69,
                        "time": 104.25,
                        "velocity": 0.7086614173228346,
                        "duration": 0.25
                    },
                    {
                        "name": "C5",
                        "midi": 72,
                        "time": 104.5,
                        "velocity": 0.7086614173228346,
                        "duration": 0.25
                    },
                    {
                        "name": "B4",
                        "midi": 71,
                        "time": 104.75,
                        "velocity": 0.7086614173228346,
                        "duration": 0.25
                    },
                    {
                        "name": "C5",
                        "midi": 72,
                        "time": 105,
                        "velocity": 0.7086614173228346,
                        "duration": 0.25
                    },
                    {
                        "name": "F#5",
                        "midi": 78,
                        "time": 105.25,
                        "velocity": 0.7086614173228346,
                        "duration": 0.25
                    },
                    {
                        "name": "C5",
                        "midi": 72,
                        "time": 105.5,
                        "velocity": 0.7086614173228346,
                        "duration": 0.25
                    },
                    {
                        "name": "A4",
                        "midi": 69,
                        "time": 105.75,
                        "velocity": 0.7086614173228346,
                        "duration": 0.25
                    },
                    {
                        "name": "D4",
                        "midi": 62,
                        "time": 106,
                        "velocity": 0.7086614173228346,
                        "duration": 0.25
                    },
                    {
                        "name": "A4",
                        "midi": 69,
                        "time": 106.25,
                        "velocity": 0.7086614173228346,
                        "duration": 0.25
                    },
                    {
                        "name": "C5",
                        "midi": 72,
                        "time": 106.5,
                        "velocity": 0.7086614173228346,
                        "duration": 0.25
                    },
                    {
                        "name": "B4",
                        "midi": 71,
                        "time": 106.75,
                        "velocity": 0.7086614173228346,
                        "duration": 0.25
                    },
                    {
                        "name": "C5",
                        "midi": 72,
                        "time": 107,
                        "velocity": 0.7086614173228346,
                        "duration": 0.25
                    },
                    {
                        "name": "F#5",
                        "midi": 78,
                        "time": 107.25,
                        "velocity": 0.7086614173228346,
                        "duration": 0.25
                    },
                    {
                        "name": "C5",
                        "midi": 72,
                        "time": 107.5,
                        "velocity": 0.7086614173228346,
                        "duration": 0.25
                    },
                    {
                        "name": "A4",
                        "midi": 69,
                        "time": 107.75,
                        "velocity": 0.7086614173228346,
                        "duration": 0.25
                    },
                    {
                        "name": "D4",
                        "midi": 62,
                        "time": 108,
                        "velocity": 0.7086614173228346,
                        "duration": 0.25
                    },
                    {
                        "name": "C5",
                        "midi": 72,
                        "time": 108.25,
                        "velocity": 0.7086614173228346,
                        "duration": 0.25
                    },
                    {
                        "name": "F#5",
                        "midi": 78,
                        "time": 108.5,
                        "velocity": 0.7086614173228346,
                        "duration": 0.25
                    },
                    {
                        "name": "E5",
                        "midi": 76,
                        "time": 108.75,
                        "velocity": 0.7086614173228346,
                        "duration": 0.25
                    },
                    {
                        "name": "D5",
                        "midi": 74,
                        "time": 109,
                        "velocity": 0.7086614173228346,
                        "duration": 0.25
                    },
                    {
                        "name": "C5",
                        "midi": 72,
                        "time": 109.25,
                        "velocity": 0.7086614173228346,
                        "duration": 0.25
                    },
                    {
                        "name": "B4",
                        "midi": 71,
                        "time": 109.5,
                        "velocity": 0.7086614173228346,
                        "duration": 0.25
                    },
                    {
                        "name": "A4",
                        "midi": 69,
                        "time": 109.75,
                        "velocity": 0.7086614173228346,
                        "duration": 0.25
                    },
                    {
                        "name": "E4",
                        "midi": 64,
                        "time": 110,
                        "velocity": 0.7086614173228346,
                        "duration": 0.25
                    },
                    {
                        "name": "D5",
                        "midi": 74,
                        "time": 110.25,
                        "velocity": 0.7086614173228346,
                        "duration": 0.25
                    },
                    {
                        "name": "C5",
                        "midi": 72,
                        "time": 110.5,
                        "velocity": 0.7086614173228346,
                        "duration": 0.25
                    },
                    {
                        "name": "B4",
                        "midi": 71,
                        "time": 110.75,
                        "velocity": 0.7086614173228346,
                        "duration": 0.25
                    },
                    {
                        "name": "F#4",
                        "midi": 66,
                        "time": 111,
                        "velocity": 0.7086614173228346,
                        "duration": 0.25
                    },
                    {
                        "name": "E5",
                        "midi": 76,
                        "time": 111.25,
                        "velocity": 0.7086614173228346,
                        "duration": 0.25
                    },
                    {
                        "name": "D5",
                        "midi": 74,
                        "time": 111.5,
                        "velocity": 0.7086614173228346,
                        "duration": 0.25
                    },
                    {
                        "name": "C5",
                        "midi": 72,
                        "time": 111.75,
                        "velocity": 0.7086614173228346,
                        "duration": 0.25
                    },
                    {
                        "name": "B4",
                        "midi": 71,
                        "time": 112,
                        "velocity": 0.7086614173228346,
                        "duration": 0.25
                    },
                    {
                        "name": "D5",
                        "midi": 74,
                        "time": 112.25,
                        "velocity": 0.7086614173228346,
                        "duration": 0.25
                    },
                    {
                        "name": "G5",
                        "midi": 79,
                        "time": 112.5,
                        "velocity": 0.7086614173228346,
                        "duration": 0.25
                    },
                    {
                        "name": "F#5",
                        "midi": 78,
                        "time": 112.75,
                        "velocity": 0.7086614173228346,
                        "duration": 0.25
                    },
                    {
                        "name": "G5",
                        "midi": 79,
                        "time": 113,
                        "velocity": 0.7086614173228346,
                        "duration": 0.25
                    },
                    {
                        "name": "B5",
                        "midi": 83,
                        "time": 113.25,
                        "velocity": 0.7086614173228346,
                        "duration": 0.25
                    },
                    {
                        "name": "G5",
                        "midi": 79,
                        "time": 113.5,
                        "velocity": 0.7086614173228346,
                        "duration": 0.25
                    },
                    {
                        "name": "D5",
                        "midi": 74,
                        "time": 113.75,
                        "velocity": 0.7086614173228346,
                        "duration": 0.25
                    },
                    {
                        "name": "G4",
                        "midi": 67,
                        "time": 114,
                        "velocity": 0.7086614173228346,
                        "duration": 0.25
                    },
                    {
                        "name": "D5",
                        "midi": 74,
                        "time": 114.25,
                        "velocity": 0.7086614173228346,
                        "duration": 0.25
                    },
                    {
                        "name": "G5",
                        "midi": 79,
                        "time": 114.5,
                        "velocity": 0.7086614173228346,
                        "duration": 0.25
                    },
                    {
                        "name": "F#5",
                        "midi": 78,
                        "time": 114.75,
                        "velocity": 0.7086614173228346,
                        "duration": 0.25
                    },
                    {
                        "name": "G5",
                        "midi": 79,
                        "time": 115,
                        "velocity": 0.7086614173228346,
                        "duration": 0.25
                    },
                    {
                        "name": "B5",
                        "midi": 83,
                        "time": 115.25,
                        "velocity": 0.7086614173228346,
                        "duration": 0.25
                    },
                    {
                        "name": "G5",
                        "midi": 79,
                        "time": 115.5,
                        "velocity": 0.7086614173228346,
                        "duration": 0.25
                    },
                    {
                        "name": "D5",
                        "midi": 74,
                        "time": 115.75,
                        "velocity": 0.7086614173228346,
                        "duration": 0.25
                    },
                    {
                        "name": "G4",
                        "midi": 67,
                        "time": 116,
                        "velocity": 0.7086614173228346,
                        "duration": 0.25
                    },
                    {
                        "name": "D5",
                        "midi": 74,
                        "time": 116.25,
                        "velocity": 0.7086614173228346,
                        "duration": 0.25
                    },
                    {
                        "name": "F5",
                        "midi": 77,
                        "time": 116.5,
                        "velocity": 0.7086614173228346,
                        "duration": 0.25
                    },
                    {
                        "name": "E5",
                        "midi": 76,
                        "time": 116.75,
                        "velocity": 0.7086614173228346,
                        "duration": 0.25
                    },
                    {
                        "name": "F5",
                        "midi": 77,
                        "time": 117,
                        "velocity": 0.7086614173228346,
                        "duration": 0.25
                    },
                    {
                        "name": "B5",
                        "midi": 83,
                        "time": 117.25,
                        "velocity": 0.7086614173228346,
                        "duration": 0.25
                    },
                    {
                        "name": "F5",
                        "midi": 77,
                        "time": 117.5,
                        "velocity": 0.7086614173228346,
                        "duration": 0.25
                    },
                    {
                        "name": "D5",
                        "midi": 74,
                        "time": 117.75,
                        "velocity": 0.7086614173228346,
                        "duration": 0.25
                    },
                    {
                        "name": "G4",
                        "midi": 67,
                        "time": 118,
                        "velocity": 0.7086614173228346,
                        "duration": 0.25
                    },
                    {
                        "name": "D5",
                        "midi": 74,
                        "time": 118.25,
                        "velocity": 0.7086614173228346,
                        "duration": 0.25
                    },
                    {
                        "name": "F5",
                        "midi": 77,
                        "time": 118.5,
                        "velocity": 0.7086614173228346,
                        "duration": 0.25
                    },
                    {
                        "name": "E5",
                        "midi": 76,
                        "time": 118.75,
                        "velocity": 0.7086614173228346,
                        "duration": 0.25
                    },
                    {
                        "name": "F5",
                        "midi": 77,
                        "time": 119,
                        "velocity": 0.7086614173228346,
                        "duration": 0.25
                    },
                    {
                        "name": "B5",
                        "midi": 83,
                        "time": 119.25,
                        "velocity": 0.7086614173228346,
                        "duration": 0.25
                    },
                    {
                        "name": "F5",
                        "midi": 77,
                        "time": 119.5,
                        "velocity": 0.7086614173228346,
                        "duration": 0.25
                    },
                    {
                        "name": "D5",
                        "midi": 74,
                        "time": 119.75,
                        "velocity": 0.7086614173228346,
                        "duration": 0.25
                    },
                    {
                        "name": "G4",
                        "midi": 67,
                        "time": 120,
                        "velocity": 0.7086614173228346,
                        "duration": 0.25
                    },
                    {
                        "name": "F5",
                        "midi": 77,
                        "time": 120.25,
                        "velocity": 0.7086614173228346,
                        "duration": 0.25
                    },
                    {
                        "name": "B5",
                        "midi": 83,
                        "time": 120.5,
                        "velocity": 0.7086614173228346,
                        "duration": 0.25
                    },
                    {
                        "name": "A5",
                        "midi": 81,
                        "time": 120.75,
                        "velocity": 0.7086614173228346,
                        "duration": 0.25
                    },
                    {
                        "name": "G5",
                        "midi": 79,
                        "time": 121,
                        "velocity": 0.7086614173228346,
                        "duration": 0.25
                    },
                    {
                        "name": "F5",
                        "midi": 77,
                        "time": 121.25,
                        "velocity": 0.7086614173228346,
                        "duration": 0.25
                    },
                    {
                        "name": "E5",
                        "midi": 76,
                        "time": 121.5,
                        "velocity": 0.7086614173228346,
                        "duration": 0.25
                    },
                    {
                        "name": "D5",
                        "midi": 74,
                        "time": 121.75,
                        "velocity": 0.7086614173228346,
                        "duration": 0.25
                    },
                    {
                        "name": "A4",
                        "midi": 69,
                        "time": 122,
                        "velocity": 0.7086614173228346,
                        "duration": 0.25
                    },
                    {
                        "name": "G5",
                        "midi": 79,
                        "time": 122.25,
                        "velocity": 0.7086614173228346,
                        "duration": 0.25
                    },
                    {
                        "name": "F5",
                        "midi": 77,
                        "time": 122.5,
                        "velocity": 0.7086614173228346,
                        "duration": 0.25
                    },
                    {
                        "name": "E5",
                        "midi": 76,
                        "time": 122.75,
                        "velocity": 0.7086614173228346,
                        "duration": 0.25
                    },
                    {
                        "name": "B4",
                        "midi": 71,
                        "time": 123,
                        "velocity": 0.7086614173228346,
                        "duration": 0.25
                    },
                    {
                        "name": "A5",
                        "midi": 81,
                        "time": 123.25,
                        "velocity": 0.7086614173228346,
                        "duration": 0.25
                    },
                    {
                        "name": "G5",
                        "midi": 79,
                        "time": 123.5,
                        "velocity": 0.7086614173228346,
                        "duration": 0.25
                    },
                    {
                        "name": "F5",
                        "midi": 77,
                        "time": 123.75,
                        "velocity": 0.7086614173228346,
                        "duration": 0.25
                    },
                    {
                        "name": "E5",
                        "midi": 76,
                        "time": 124,
                        "velocity": 0.7086614173228346,
                        "duration": 0.25
                    },
                    {
                        "name": "G5",
                        "midi": 79,
                        "time": 124.25,
                        "velocity": 0.7086614173228346,
                        "duration": 0.25
                    },
                    {
                        "name": "E5",
                        "midi": 76,
                        "time": 124.5,
                        "velocity": 0.7086614173228346,
                        "duration": 0.25
                    },
                    {
                        "name": "C5",
                        "midi": 72,
                        "time": 124.75,
                        "velocity": 0.7086614173228346,
                        "duration": 0.25
                    },
                    {
                        "name": "A#4",
                        "midi": 70,
                        "time": 125,
                        "velocity": 0.7086614173228346,
                        "duration": 0.25
                    },
                    {
                        "name": "A4",
                        "midi": 69,
                        "time": 125.25,
                        "velocity": 0.7086614173228346,
                        "duration": 0.25
                    },
                    {
                        "name": "A#4",
                        "midi": 70,
                        "time": 125.5,
                        "velocity": 0.7086614173228346,
                        "duration": 0.25
                    },
                    {
                        "name": "G4",
                        "midi": 67,
                        "time": 125.75,
                        "velocity": 0.7086614173228346,
                        "duration": 0.25
                    },
                    {
                        "name": "A4",
                        "midi": 69,
                        "time": 126,
                        "velocity": 0.7086614173228346,
                        "duration": 0.25
                    },
                    {
                        "name": "B4",
                        "midi": 71,
                        "time": 126.25,
                        "velocity": 0.7086614173228346,
                        "duration": 0.25
                    },
                    {
                        "name": "C#5",
                        "midi": 73,
                        "time": 126.5,
                        "velocity": 0.7086614173228346,
                        "duration": 0.25
                    },
                    {
                        "name": "D5",
                        "midi": 74,
                        "time": 126.75,
                        "velocity": 0.7086614173228346,
                        "duration": 0.25
                    },
                    {
                        "name": "E5",
                        "midi": 76,
                        "time": 127,
                        "velocity": 0.7086614173228346,
                        "duration": 0.25
                    },
                    {
                        "name": "F5",
                        "midi": 77,
                        "time": 127.25,
                        "velocity": 0.7086614173228346,
                        "duration": 0.25
                    },
                    {
                        "name": "G5",
                        "midi": 79,
                        "time": 127.5,
                        "velocity": 0.7086614173228346,
                        "duration": 0.25
                    },
                    {
                        "name": "E5",
                        "midi": 76,
                        "time": 127.75,
                        "velocity": 0.7086614173228346,
                        "duration": 0.25
                    },
                    {
                        "name": "F5",
                        "midi": 77,
                        "time": 128,
                        "velocity": 0.7086614173228346,
                        "duration": 0.25
                    },
                    {
                        "name": "A5",
                        "midi": 81,
                        "time": 128.25,
                        "velocity": 0.7086614173228346,
                        "duration": 0.25
                    },
                    {
                        "name": "F5",
                        "midi": 77,
                        "time": 128.5,
                        "velocity": 0.7086614173228346,
                        "duration": 0.25
                    },
                    {
                        "name": "D5",
                        "midi": 74,
                        "time": 128.75,
                        "velocity": 0.7086614173228346,
                        "duration": 0.25
                    },
                    {
                        "name": "C5",
                        "midi": 72,
                        "time": 129,
                        "velocity": 0.7086614173228346,
                        "duration": 0.25
                    },
                    {
                        "name": "B4",
                        "midi": 71,
                        "time": 129.25,
                        "velocity": 0.7086614173228346,
                        "duration": 0.25
                    },
                    {
                        "name": "C5",
                        "midi": 72,
                        "time": 129.5,
                        "velocity": 0.7086614173228346,
                        "duration": 0.25
                    },
                    {
                        "name": "A4",
                        "midi": 69,
                        "time": 129.75,
                        "velocity": 0.7086614173228346,
                        "duration": 0.25
                    },
                    {
                        "name": "B4",
                        "midi": 71,
                        "time": 130,
                        "velocity": 0.7086614173228346,
                        "duration": 0.25
                    },
                    {
                        "name": "C#5",
                        "midi": 73,
                        "time": 130.25,
                        "velocity": 0.7086614173228346,
                        "duration": 0.25
                    },
                    {
                        "name": "D#5",
                        "midi": 75,
                        "time": 130.5,
                        "velocity": 0.7086614173228346,
                        "duration": 0.25
                    },
                    {
                        "name": "E5",
                        "midi": 76,
                        "time": 130.75,
                        "velocity": 0.7086614173228346,
                        "duration": 0.25
                    },
                    {
                        "name": "F#5",
                        "midi": 78,
                        "time": 131,
                        "velocity": 0.7086614173228346,
                        "duration": 0.25
                    },
                    {
                        "name": "G#5",
                        "midi": 80,
                        "time": 131.25,
                        "velocity": 0.7086614173228346,
                        "duration": 0.25
                    },
                    {
                        "name": "A5",
                        "midi": 81,
                        "time": 131.5,
                        "velocity": 0.7086614173228346,
                        "duration": 0.25
                    },
                    {
                        "name": "F#5",
                        "midi": 78,
                        "time": 131.75,
                        "velocity": 0.7086614173228346,
                        "duration": 0.25
                    },
                    {
                        "name": "G#5",
                        "midi": 80,
                        "time": 132,
                        "velocity": 0.7086614173228346,
                        "duration": 0.25
                    },
                    {
                        "name": "B5",
                        "midi": 83,
                        "time": 132.25,
                        "velocity": 0.7086614173228346,
                        "duration": 0.25
                    },
                    {
                        "name": "G#5",
                        "midi": 80,
                        "time": 132.5,
                        "velocity": 0.7086614173228346,
                        "duration": 0.25
                    },
                    {
                        "name": "E5",
                        "midi": 76,
                        "time": 132.75,
                        "velocity": 0.7086614173228346,
                        "duration": 0.25
                    },
                    {
                        "name": "D5",
                        "midi": 74,
                        "time": 133,
                        "velocity": 0.7086614173228346,
                        "duration": 0.25
                    },
                    {
                        "name": "C5",
                        "midi": 72,
                        "time": 133.25,
                        "velocity": 0.7086614173228346,
                        "duration": 0.25
                    },
                    {
                        "name": "D5",
                        "midi": 74,
                        "time": 133.5,
                        "velocity": 0.7086614173228346,
                        "duration": 0.25
                    },
                    {
                        "name": "B4",
                        "midi": 71,
                        "time": 133.75,
                        "velocity": 0.7086614173228346,
                        "duration": 0.25
                    },
                    {
                        "name": "C5",
                        "midi": 72,
                        "time": 134,
                        "velocity": 0.7086614173228346,
                        "duration": 0.25
                    },
                    {
                        "name": "E5",
                        "midi": 76,
                        "time": 134.25,
                        "velocity": 0.7086614173228346,
                        "duration": 0.25
                    },
                    {
                        "name": "G#5",
                        "midi": 80,
                        "time": 134.5,
                        "velocity": 0.7086614173228346,
                        "duration": 0.25
                    },
                    {
                        "name": "A5",
                        "midi": 81,
                        "time": 134.75,
                        "velocity": 0.7086614173228346,
                        "duration": 0.25
                    },
                    {
                        "name": "G#4",
                        "midi": 68,
                        "time": 135,
                        "velocity": 0.7086614173228346,
                        "duration": 0.25
                    },
                    {
                        "name": "F5",
                        "midi": 77,
                        "time": 135.25,
                        "velocity": 0.7086614173228346,
                        "duration": 0.25
                    },
                    {
                        "name": "E5",
                        "midi": 76,
                        "time": 135.5,
                        "velocity": 0.7086614173228346,
                        "duration": 0.25
                    },
                    {
                        "name": "D5",
                        "midi": 74,
                        "time": 135.75,
                        "velocity": 0.7086614173228346,
                        "duration": 0.25
                    },
                    {
                        "name": "A4",
                        "midi": 69,
                        "time": 136,
                        "velocity": 0.7086614173228346,
                        "duration": 0.25
                    },
                    {
                        "name": "C5",
                        "midi": 72,
                        "time": 136.25,
                        "velocity": 0.7086614173228346,
                        "duration": 0.25
                    },
                    {
                        "name": "E5",
                        "midi": 76,
                        "time": 136.5,
                        "velocity": 0.7086614173228346,
                        "duration": 0.25
                    },
                    {
                        "name": "F5",
                        "midi": 77,
                        "time": 136.75,
                        "velocity": 0.7086614173228346,
                        "duration": 0.25
                    },
                    {
                        "name": "E4",
                        "midi": 64,
                        "time": 137,
                        "velocity": 0.7086614173228346,
                        "duration": 0.25
                    },
                    {
                        "name": "D5",
                        "midi": 74,
                        "time": 137.25,
                        "velocity": 0.7086614173228346,
                        "duration": 0.25
                    },
                    {
                        "name": "C5",
                        "midi": 72,
                        "time": 137.5,
                        "velocity": 0.7086614173228346,
                        "duration": 0.25
                    },
                    {
                        "name": "A#4",
                        "midi": 70,
                        "time": 137.75,
                        "velocity": 0.7086614173228346,
                        "duration": 0.25
                    },
                    {
                        "name": "F4",
                        "midi": 65,
                        "time": 138,
                        "velocity": 0.7086614173228346,
                        "duration": 0.25
                    },
                    {
                        "name": "A4",
                        "midi": 69,
                        "time": 138.25,
                        "velocity": 0.7086614173228346,
                        "duration": 0.25
                    },
                    {
                        "name": "C#5",
                        "midi": 73,
                        "time": 138.5,
                        "velocity": 0.7086614173228346,
                        "duration": 0.25
                    },
                    {
                        "name": "D5",
                        "midi": 74,
                        "time": 138.75,
                        "velocity": 0.7086614173228346,
                        "duration": 0.25
                    },
                    {
                        "name": "A4",
                        "midi": 69,
                        "time": 139,
                        "velocity": 0.7086614173228346,
                        "duration": 0.25
                    },
                    {
                        "name": "G5",
                        "midi": 79,
                        "time": 139.25,
                        "velocity": 0.7086614173228346,
                        "duration": 0.25
                    },
                    {
                        "name": "F5",
                        "midi": 77,
                        "time": 139.5,
                        "velocity": 0.7086614173228346,
                        "duration": 0.25
                    },
                    {
                        "name": "E5",
                        "midi": 76,
                        "time": 139.75,
                        "velocity": 0.7086614173228346,
                        "duration": 0.25
                    },
                    {
                        "name": "D5",
                        "midi": 74,
                        "time": 140,
                        "velocity": 0.7086614173228346,
                        "duration": 0.25
                    },
                    {
                        "name": "F5",
                        "midi": 77,
                        "time": 140.25,
                        "velocity": 0.7086614173228346,
                        "duration": 0.25
                    },
                    {
                        "name": "C#5",
                        "midi": 73,
                        "time": 140.5,
                        "velocity": 0.7086614173228346,
                        "duration": 0.25
                    },
                    {
                        "name": "D5",
                        "midi": 74,
                        "time": 140.75,
                        "velocity": 0.7086614173228346,
                        "duration": 0.25
                    },
                    {
                        "name": "A5",
                        "midi": 81,
                        "time": 141,
                        "velocity": 0.7086614173228346,
                        "duration": 0.25
                    },
                    {
                        "name": "F#5",
                        "midi": 78,
                        "time": 141.25,
                        "velocity": 0.7086614173228346,
                        "duration": 0.25
                    },
                    {
                        "name": "C5",
                        "midi": 72,
                        "time": 141.5,
                        "velocity": 0.7086614173228346,
                        "duration": 0.25
                    },
                    {
                        "name": "D5",
                        "midi": 74,
                        "time": 141.75,
                        "velocity": 0.7086614173228346,
                        "duration": 0.25
                    },
                    {
                        "name": "B4",
                        "midi": 71,
                        "time": 142,
                        "velocity": 0.7086614173228346,
                        "duration": 0.25
                    },
                    {
                        "name": "G#5",
                        "midi": 80,
                        "time": 142.25,
                        "velocity": 0.7086614173228346,
                        "duration": 0.25
                    },
                    {
                        "name": "E5",
                        "midi": 76,
                        "time": 142.5,
                        "velocity": 0.7086614173228346,
                        "duration": 0.25
                    },
                    {
                        "name": "F5",
                        "midi": 77,
                        "time": 142.75,
                        "velocity": 0.7086614173228346,
                        "duration": 0.25
                    },
                    {
                        "name": "A5",
                        "midi": 81,
                        "time": 143,
                        "velocity": 0.7086614173228346,
                        "duration": 0.25
                    },
                    {
                        "name": "F5",
                        "midi": 77,
                        "time": 143.25,
                        "velocity": 0.7086614173228346,
                        "duration": 0.25
                    },
                    {
                        "name": "C#5",
                        "midi": 73,
                        "time": 143.5,
                        "velocity": 0.7086614173228346,
                        "duration": 0.25
                    },
                    {
                        "name": "D5",
                        "midi": 74,
                        "time": 143.75,
                        "velocity": 0.7086614173228346,
                        "duration": 0.25
                    },
                    {
                        "name": "G#4",
                        "midi": 68,
                        "time": 144,
                        "velocity": 0.7086614173228346,
                        "duration": 0.25
                    },
                    {
                        "name": "F5",
                        "midi": 77,
                        "time": 144.25,
                        "velocity": 0.7086614173228346,
                        "duration": 0.25
                    },
                    {
                        "name": "C#5",
                        "midi": 73,
                        "time": 144.5,
                        "velocity": 0.7086614173228346,
                        "duration": 0.25
                    },
                    {
                        "name": "D5",
                        "midi": 74,
                        "time": 144.75,
                        "velocity": 0.7086614173228346,
                        "duration": 0.25
                    },
                    {
                        "name": "B5",
                        "midi": 83,
                        "time": 145,
                        "velocity": 0.7086614173228346,
                        "duration": 0.25
                    },
                    {
                        "name": "A5",
                        "midi": 81,
                        "time": 145.25,
                        "velocity": 0.7086614173228346,
                        "duration": 0.25
                    },
                    {
                        "name": "G#5",
                        "midi": 80,
                        "time": 145.5,
                        "velocity": 0.7086614173228346,
                        "duration": 0.25
                    },
                    {
                        "name": "F#5",
                        "midi": 78,
                        "time": 145.75,
                        "velocity": 0.7086614173228346,
                        "duration": 0.25
                    },
                    {
                        "name": "E5",
                        "midi": 76,
                        "time": 146,
                        "velocity": 0.7086614173228346,
                        "duration": 0.25
                    },
                    {
                        "name": "D5",
                        "midi": 74,
                        "time": 146.25,
                        "velocity": 0.7086614173228346,
                        "duration": 0.25
                    },
                    {
                        "name": "C5",
                        "midi": 72,
                        "time": 146.5,
                        "velocity": 0.7086614173228346,
                        "duration": 0.25
                    },
                    {
                        "name": "B4",
                        "midi": 71,
                        "time": 146.75,
                        "velocity": 0.7086614173228346,
                        "duration": 0.25
                    },
                    {
                        "name": "A4",
                        "midi": 69,
                        "time": 147,
                        "velocity": 0.7086614173228346,
                        "duration": 0.25
                    },
                    {
                        "name": "G#4",
                        "midi": 68,
                        "time": 147.25,
                        "velocity": 0.7086614173228346,
                        "duration": 0.25
                    },
                    {
                        "name": "F#4",
                        "midi": 66,
                        "time": 147.5,
                        "velocity": 0.7086614173228346,
                        "duration": 0.25
                    },
                    {
                        "name": "E4",
                        "midi": 64,
                        "time": 147.75,
                        "velocity": 0.7086614173228346,
                        "duration": 0.25
                    },
                    {
                        "name": "D5",
                        "midi": 74,
                        "time": 148,
                        "velocity": 0.7086614173228346,
                        "duration": 0.25
                    },
                    {
                        "name": "B4",
                        "midi": 71,
                        "time": 148.25,
                        "velocity": 0.7086614173228346,
                        "duration": 0.25
                    },
                    {
                        "name": "C5",
                        "midi": 72,
                        "time": 148.5,
                        "velocity": 0.7086614173228346,
                        "duration": 0.25
                    },
                    {
                        "name": "E5",
                        "midi": 76,
                        "time": 148.75,
                        "velocity": 0.7086614173228346,
                        "duration": 0.25
                    },
                    {
                        "name": "A4",
                        "midi": 69,
                        "time": 149,
                        "velocity": 0.7086614173228346,
                        "duration": 0.25
                    },
                    {
                        "name": "B4",
                        "midi": 71,
                        "time": 149.25,
                        "velocity": 0.7086614173228346,
                        "duration": 0.25
                    },
                    {
                        "name": "C5",
                        "midi": 72,
                        "time": 149.5,
                        "velocity": 0.7086614173228346,
                        "duration": 0.25
                    },
                    {
                        "name": "D5",
                        "midi": 74,
                        "time": 149.75,
                        "velocity": 0.7086614173228346,
                        "duration": 0.25
                    },
                    {
                        "name": "E5",
                        "midi": 76,
                        "time": 150,
                        "velocity": 0.7086614173228346,
                        "duration": 0.25
                    },
                    {
                        "name": "F#5",
                        "midi": 78,
                        "time": 150.25,
                        "velocity": 0.7086614173228346,
                        "duration": 0.25
                    },
                    {
                        "name": "G#5",
                        "midi": 80,
                        "time": 150.5,
                        "velocity": 0.7086614173228346,
                        "duration": 0.25
                    },
                    {
                        "name": "A5",
                        "midi": 81,
                        "time": 150.75,
                        "velocity": 0.7086614173228346,
                        "duration": 0.25
                    },
                    {
                        "name": "B5",
                        "midi": 83,
                        "time": 151,
                        "velocity": 0.7086614173228346,
                        "duration": 0.25
                    },
                    {
                        "name": "G#5",
                        "midi": 80,
                        "time": 151.25,
                        "velocity": 0.7086614173228346,
                        "duration": 0.25
                    },
                    {
                        "name": "A5",
                        "midi": 81,
                        "time": 151.5,
                        "velocity": 0.7086614173228346,
                        "duration": 0.25
                    },
                    {
                        "name": "C6",
                        "midi": 84,
                        "time": 151.75,
                        "velocity": 0.7086614173228346,
                        "duration": 0.25
                    },
                    {
                        "name": "D#5",
                        "midi": 75,
                        "time": 152,
                        "velocity": 0.7086614173228346,
                        "duration": 0.25
                    },
                    {
                        "name": "F#5",
                        "midi": 78,
                        "time": 152.25,
                        "velocity": 0.7086614173228346,
                        "duration": 0.25
                    },
                    {
                        "name": "C6",
                        "midi": 84,
                        "time": 152.5,
                        "velocity": 0.7086614173228346,
                        "duration": 0.25
                    },
                    {
                        "name": "B5",
                        "midi": 83,
                        "time": 152.75,
                        "velocity": 0.7086614173228346,
                        "duration": 0.25
                    },
                    {
                        "name": "E5",
                        "midi": 76,
                        "time": 153,
                        "velocity": 0.7086614173228346,
                        "duration": 0.25
                    },
                    {
                        "name": "G#5",
                        "midi": 80,
                        "time": 153.25,
                        "velocity": 0.7086614173228346,
                        "duration": 0.25
                    },
                    {
                        "name": "C6",
                        "midi": 84,
                        "time": 153.5,
                        "velocity": 0.7086614173228346,
                        "duration": 0.25
                    },
                    {
                        "name": "B5",
                        "midi": 83,
                        "time": 153.75,
                        "velocity": 0.7086614173228346,
                        "duration": 0.25
                    },
                    {
                        "name": "F#5",
                        "midi": 78,
                        "time": 154,
                        "velocity": 0.7086614173228346,
                        "duration": 0.25
                    },
                    {
                        "name": "A5",
                        "midi": 81,
                        "time": 154.25,
                        "velocity": 0.7086614173228346,
                        "duration": 0.25
                    },
                    {
                        "name": "C6",
                        "midi": 84,
                        "time": 154.5,
                        "velocity": 0.7086614173228346,
                        "duration": 0.25
                    },
                    {
                        "name": "B5",
                        "midi": 83,
                        "time": 154.75,
                        "velocity": 0.7086614173228346,
                        "duration": 0.25
                    },
                    {
                        "name": "B4",
                        "midi": 71,
                        "time": 155,
                        "velocity": 0.7086614173228346,
                        "duration": 0.25
                    },
                    {
                        "name": "C6",
                        "midi": 84,
                        "time": 155.25,
                        "velocity": 0.7086614173228346,
                        "duration": 0.25
                    },
                    {
                        "name": "B5",
                        "midi": 83,
                        "time": 155.5,
                        "velocity": 0.7086614173228346,
                        "duration": 0.25
                    },
                    {
                        "name": "A5",
                        "midi": 81,
                        "time": 155.75,
                        "velocity": 0.7086614173228346,
                        "duration": 0.25
                    },
                    {
                        "name": "G#5",
                        "midi": 80,
                        "time": 156,
                        "velocity": 0.7086614173228346,
                        "duration": 0.25
                    },
                    {
                        "name": "E5",
                        "midi": 76,
                        "time": 156.25,
                        "velocity": 0.7086614173228346,
                        "duration": 0.25
                    },
                    {
                        "name": "F5",
                        "midi": 77,
                        "time": 156.5,
                        "velocity": 0.7086614173228346,
                        "duration": 0.25
                    },
                    {
                        "name": "E5",
                        "midi": 76,
                        "time": 156.75,
                        "velocity": 0.7086614173228346,
                        "duration": 0.25
                    },
                    {
                        "name": "A5",
                        "midi": 81,
                        "time": 157,
                        "velocity": 0.7086614173228346,
                        "duration": 0.25
                    },
                    {
                        "name": "E5",
                        "midi": 76,
                        "time": 157.25,
                        "velocity": 0.7086614173228346,
                        "duration": 0.25
                    },
                    {
                        "name": "F5",
                        "midi": 77,
                        "time": 157.5,
                        "velocity": 0.7086614173228346,
                        "duration": 0.25
                    },
                    {
                        "name": "E5",
                        "midi": 76,
                        "time": 157.75,
                        "velocity": 0.7086614173228346,
                        "duration": 0.25
                    },
                    {
                        "name": "B5",
                        "midi": 83,
                        "time": 158,
                        "velocity": 0.7086614173228346,
                        "duration": 0.25
                    },
                    {
                        "name": "E5",
                        "midi": 76,
                        "time": 158.25,
                        "velocity": 0.7086614173228346,
                        "duration": 0.25
                    },
                    {
                        "name": "F5",
                        "midi": 77,
                        "time": 158.5,
                        "velocity": 0.7086614173228346,
                        "duration": 0.25
                    },
                    {
                        "name": "E5",
                        "midi": 76,
                        "time": 158.75,
                        "velocity": 0.7086614173228346,
                        "duration": 0.25
                    },
                    {
                        "name": "D5",
                        "midi": 74,
                        "time": 159,
                        "velocity": 0.7086614173228346,
                        "duration": 0.25
                    },
                    {
                        "name": "F5",
                        "midi": 77,
                        "time": 159.25,
                        "velocity": 0.7086614173228346,
                        "duration": 0.25
                    },
                    {
                        "name": "E5",
                        "midi": 76,
                        "time": 159.5,
                        "velocity": 0.7086614173228346,
                        "duration": 0.25
                    },
                    {
                        "name": "D5",
                        "midi": 74,
                        "time": 159.75,
                        "velocity": 0.7086614173228346,
                        "duration": 0.25
                    },
                    {
                        "name": "C5",
                        "midi": 72,
                        "time": 160,
                        "velocity": 0.7086614173228346,
                        "duration": 0.25
                    },
                    {
                        "name": "A4",
                        "midi": 69,
                        "time": 160.25,
                        "velocity": 0.7086614173228346,
                        "duration": 0.25
                    },
                    {
                        "name": "C5",
                        "midi": 72,
                        "time": 160.5,
                        "velocity": 0.7086614173228346,
                        "duration": 0.25
                    },
                    {
                        "name": "E5",
                        "midi": 76,
                        "time": 160.75,
                        "velocity": 0.7086614173228346,
                        "duration": 0.25
                    },
                    {
                        "name": "A5",
                        "midi": 81,
                        "time": 161,
                        "velocity": 0.7086614173228346,
                        "duration": 0.25
                    },
                    {
                        "name": "G5",
                        "midi": 79,
                        "time": 161.25,
                        "velocity": 0.7086614173228346,
                        "duration": 0.25
                    },
                    {
                        "name": "F5",
                        "midi": 77,
                        "time": 161.5,
                        "velocity": 0.7086614173228346,
                        "duration": 0.25
                    },
                    {
                        "name": "E5",
                        "midi": 76,
                        "time": 161.75,
                        "velocity": 0.7086614173228346,
                        "duration": 0.25
                    },
                    {
                        "name": "F5",
                        "midi": 77,
                        "time": 162,
                        "velocity": 0.7086614173228346,
                        "duration": 0.25
                    },
                    {
                        "name": "A5",
                        "midi": 81,
                        "time": 162.25,
                        "velocity": 0.7086614173228346,
                        "duration": 0.25
                    },
                    {
                        "name": "F5",
                        "midi": 77,
                        "time": 162.5,
                        "velocity": 0.7086614173228346,
                        "duration": 0.25
                    },
                    {
                        "name": "D5",
                        "midi": 74,
                        "time": 162.75,
                        "velocity": 0.7086614173228346,
                        "duration": 0.25
                    },
                    {
                        "name": "D6",
                        "midi": 86,
                        "time": 163,
                        "velocity": 0.7086614173228346,
                        "duration": 0.25
                    },
                    {
                        "name": "C6",
                        "midi": 84,
                        "time": 163.25,
                        "velocity": 0.7086614173228346,
                        "duration": 0.25
                    },
                    {
                        "name": "B5",
                        "midi": 83,
                        "time": 163.5,
                        "velocity": 0.7086614173228346,
                        "duration": 0.25
                    },
                    {
                        "name": "A5",
                        "midi": 81,
                        "time": 163.75,
                        "velocity": 0.7086614173228346,
                        "duration": 0.25
                    },
                    {
                        "name": "G#5",
                        "midi": 80,
                        "time": 164,
                        "velocity": 0.7086614173228346,
                        "duration": 0.25
                    },
                    {
                        "name": "E6",
                        "midi": 88,
                        "time": 164.25,
                        "velocity": 0.7086614173228346,
                        "duration": 0.25
                    },
                    {
                        "name": "C#6",
                        "midi": 85,
                        "time": 164.5,
                        "velocity": 0.7086614173228346,
                        "duration": 0.25
                    },
                    {
                        "name": "G5",
                        "midi": 79,
                        "time": 164.75,
                        "velocity": 0.7086614173228346,
                        "duration": 0.25
                    },
                    {
                        "name": "F#5",
                        "midi": 78,
                        "time": 165,
                        "velocity": 0.7086614173228346,
                        "duration": 0.25
                    },
                    {
                        "name": "D6",
                        "midi": 86,
                        "time": 165.25,
                        "velocity": 0.7086614173228346,
                        "duration": 0.25
                    },
                    {
                        "name": "B5",
                        "midi": 83,
                        "time": 165.5,
                        "velocity": 0.7086614173228346,
                        "duration": 0.25
                    },
                    {
                        "name": "F5",
                        "midi": 77,
                        "time": 165.75,
                        "velocity": 0.7086614173228346,
                        "duration": 0.25
                    },
                    {
                        "name": "E5",
                        "midi": 76,
                        "time": 166,
                        "velocity": 0.7086614173228346,
                        "duration": 0.25
                    },
                    {
                        "name": "C6",
                        "midi": 84,
                        "time": 166.25,
                        "velocity": 0.7086614173228346,
                        "duration": 0.25
                    },
                    {
                        "name": "A5",
                        "midi": 81,
                        "time": 166.5,
                        "velocity": 0.7086614173228346,
                        "duration": 0.25
                    },
                    {
                        "name": "D#5",
                        "midi": 75,
                        "time": 166.75,
                        "velocity": 0.7086614173228346,
                        "duration": 0.25
                    },
                    {
                        "name": "D5",
                        "midi": 74,
                        "time": 167,
                        "velocity": 0.7086614173228346,
                        "duration": 0.25
                    },
                    {
                        "name": "A#5",
                        "midi": 82,
                        "time": 167.25,
                        "velocity": 0.7086614173228346,
                        "duration": 0.25
                    },
                    {
                        "name": "G#5",
                        "midi": 80,
                        "time": 167.5,
                        "velocity": 0.7086614173228346,
                        "duration": 0.25
                    },
                    {
                        "name": "D5",
                        "midi": 74,
                        "time": 167.75,
                        "velocity": 0.7086614173228346,
                        "duration": 0.25
                    },
                    {
                        "name": "C5",
                        "midi": 72,
                        "time": 168,
                        "velocity": 0.7086614173228346,
                        "duration": 0.25
                    },
                    {
                        "name": "A5",
                        "midi": 81,
                        "time": 168.25,
                        "velocity": 0.7086614173228346,
                        "duration": 0.25
                    },
                    {
                        "name": "F5",
                        "midi": 77,
                        "time": 168.5,
                        "velocity": 0.7086614173228346,
                        "duration": 0.25
                    },
                    {
                        "name": "D5",
                        "midi": 74,
                        "time": 168.75,
                        "velocity": 0.7086614173228346,
                        "duration": 0.25
                    },
                    {
                        "name": "B4",
                        "midi": 71,
                        "time": 169,
                        "velocity": 0.7086614173228346,
                        "duration": 0.25
                    },
                    {
                        "name": "F5",
                        "midi": 77,
                        "time": 169.25,
                        "velocity": 0.7086614173228346,
                        "duration": 0.25
                    },
                    {
                        "name": "D5",
                        "midi": 74,
                        "time": 169.5,
                        "velocity": 0.7086614173228346,
                        "duration": 0.25
                    },
                    {
                        "name": "B4",
                        "midi": 71,
                        "time": 169.75,
                        "velocity": 0.7086614173228346,
                        "duration": 0.25
                    },
                    {
                        "name": "G#4",
                        "midi": 68,
                        "time": 170,
                        "velocity": 0.7086614173228346,
                        "duration": 0.25
                    },
                    {
                        "name": "B4",
                        "midi": 71,
                        "time": 170.25,
                        "velocity": 0.7086614173228346,
                        "duration": 0.25
                    },
                    {
                        "name": "D5",
                        "midi": 74,
                        "time": 170.5,
                        "velocity": 0.7086614173228346,
                        "duration": 0.25
                    },
                    {
                        "name": "F5",
                        "midi": 77,
                        "time": 170.75,
                        "velocity": 0.7086614173228346,
                        "duration": 0.25
                    },
                    {
                        "name": "E5",
                        "midi": 76,
                        "time": 171,
                        "velocity": 0.7086614173228346,
                        "duration": 0.25
                    },
                    {
                        "name": "D5",
                        "midi": 74,
                        "time": 171.25,
                        "velocity": 0.7086614173228346,
                        "duration": 0.25
                    },
                    {
                        "name": "C5",
                        "midi": 72,
                        "time": 171.5,
                        "velocity": 0.7086614173228346,
                        "duration": 0.25
                    },
                    {
                        "name": "B4",
                        "midi": 71,
                        "time": 171.75,
                        "velocity": 0.7086614173228346,
                        "duration": 0.25
                    },
                    {
                        "name": "C5",
                        "midi": 72,
                        "time": 172,
                        "velocity": 0.7086614173228346,
                        "duration": 0.25
                    },
                    {
                        "name": "E5",
                        "midi": 76,
                        "time": 172.25,
                        "velocity": 0.7086614173228346,
                        "duration": 0.25
                    },
                    {
                        "name": "A5",
                        "midi": 81,
                        "time": 172.5,
                        "velocity": 0.7086614173228346,
                        "duration": 0.25
                    },
                    {
                        "name": "C5",
                        "midi": 72,
                        "time": 172.75,
                        "velocity": 0.7086614173228346,
                        "duration": 0.25
                    },
                    {
                        "name": "B4",
                        "midi": 71,
                        "time": 173,
                        "velocity": 0.7086614173228346,
                        "duration": 0.25
                    },
                    {
                        "name": "A4",
                        "midi": 69,
                        "time": 173.25,
                        "velocity": 0.7086614173228346,
                        "duration": 0.25
                    },
                    {
                        "name": "E4",
                        "midi": 64,
                        "time": 173.5,
                        "velocity": 0.7086614173228346,
                        "duration": 0.25
                    },
                    {
                        "name": "G#5",
                        "midi": 80,
                        "time": 173.75,
                        "velocity": 0.7086614173228346,
                        "duration": 0.25
                    },
                    {
                        "name": "A5",
                        "midi": 81,
                        "time": 174,
                        "velocity": 0.7086614173228346,
                        "duration": 0.25
                    },
                    {
                        "name": "A4",
                        "midi": 69,
                        "time": 174.25,
                        "velocity": 0.7086614173228346,
                        "duration": 0.25
                    },
                    {
                        "name": "G4",
                        "midi": 67,
                        "time": 174.5,
                        "velocity": 0.7086614173228346,
                        "duration": 0.25
                    },
                    {
                        "name": "E4",
                        "midi": 64,
                        "time": 174.75,
                        "velocity": 0.7086614173228346,
                        "duration": 0.25
                    },
                    {
                        "name": "F4",
                        "midi": 65,
                        "time": 175,
                        "velocity": 0.7086614173228346,
                        "duration": 0.25
                    },
                    {
                        "name": "A5",
                        "midi": 81,
                        "time": 175.25,
                        "velocity": 0.7086614173228346,
                        "duration": 0.25
                    },
                    {
                        "name": "E4",
                        "midi": 64,
                        "time": 175.5,
                        "velocity": 0.7086614173228346,
                        "duration": 0.25
                    },
                    {
                        "name": "G5",
                        "midi": 79,
                        "time": 175.75,
                        "velocity": 0.7086614173228346,
                        "duration": 0.25
                    },
                    {
                        "name": "D4",
                        "midi": 62,
                        "time": 176,
                        "velocity": 0.7086614173228346,
                        "duration": 0.25
                    },
                    {
                        "name": "F5",
                        "midi": 77,
                        "time": 176.25,
                        "velocity": 0.7086614173228346,
                        "duration": 0.25
                    },
                    {
                        "name": "E5",
                        "midi": 76,
                        "time": 176.5,
                        "velocity": 0.7086614173228346,
                        "duration": 0.25
                    },
                    {
                        "name": "C#5",
                        "midi": 73,
                        "time": 176.75,
                        "velocity": 0.7086614173228346,
                        "duration": 0.25
                    },
                    {
                        "name": "D5",
                        "midi": 74,
                        "time": 177,
                        "velocity": 0.7086614173228346,
                        "duration": 0.25
                    },
                    {
                        "name": "A#5",
                        "midi": 82,
                        "time": 177.25,
                        "velocity": 0.7086614173228346,
                        "duration": 0.25
                    },
                    {
                        "name": "C5",
                        "midi": 72,
                        "time": 177.5,
                        "velocity": 0.7086614173228346,
                        "duration": 0.25
                    },
                    {
                        "name": "A5",
                        "midi": 81,
                        "time": 177.75,
                        "velocity": 0.7086614173228346,
                        "duration": 0.25
                    },
                    {
                        "name": "G#5",
                        "midi": 80,
                        "time": 178,
                        "velocity": 0.7086614173228346,
                        "duration": 0.25
                    },
                    {
                        "name": "E5",
                        "midi": 76,
                        "time": 178.25,
                        "velocity": 0.7086614173228346,
                        "duration": 0.25
                    },
                    {
                        "name": "D5",
                        "midi": 74,
                        "time": 178.5,
                        "velocity": 0.7086614173228346,
                        "duration": 0.25
                    },
                    {
                        "name": "B4",
                        "midi": 71,
                        "time": 178.75,
                        "velocity": 0.7086614173228346,
                        "duration": 0.25
                    },
                    {
                        "name": "C5",
                        "midi": 72,
                        "time": 179,
                        "velocity": 0.7086614173228346,
                        "duration": 0.25
                    },
                    {
                        "name": "E6",
                        "midi": 88,
                        "time": 179.25,
                        "velocity": 0.7086614173228346,
                        "duration": 0.25
                    },
                    {
                        "name": "B4",
                        "midi": 71,
                        "time": 179.5,
                        "velocity": 0.7086614173228346,
                        "duration": 0.25
                    },
                    {
                        "name": "D6",
                        "midi": 86,
                        "time": 179.75,
                        "velocity": 0.7086614173228346,
                        "duration": 0.25
                    },
                    {
                        "name": "A4",
                        "midi": 69,
                        "time": 180,
                        "velocity": 0.7086614173228346,
                        "duration": 0.25
                    },
                    {
                        "name": "C6",
                        "midi": 84,
                        "time": 180.25,
                        "velocity": 0.7086614173228346,
                        "duration": 0.25
                    },
                    {
                        "name": "D5",
                        "midi": 74,
                        "time": 180.5,
                        "velocity": 0.7086614173228346,
                        "duration": 0.25
                    },
                    {
                        "name": "B5",
                        "midi": 83,
                        "time": 180.75,
                        "velocity": 0.7086614173228346,
                        "duration": 0.25
                    },
                    {
                        "name": "E5",
                        "midi": 76,
                        "time": 181,
                        "velocity": 0.7086614173228346,
                        "duration": 0.25
                    },
                    {
                        "name": "A5",
                        "midi": 81,
                        "time": 181.25,
                        "velocity": 0.7086614173228346,
                        "duration": 0.25
                    },
                    {
                        "name": "B5",
                        "midi": 83,
                        "time": 181.5,
                        "velocity": 0.7086614173228346,
                        "duration": 0.25
                    },
                    {
                        "name": "G#5",
                        "midi": 80,
                        "time": 181.75,
                        "velocity": 0.7086614173228346,
                        "duration": 0.25
                    },
                    {
                        "name": "A5",
                        "midi": 81,
                        "time": 182,
                        "velocity": 0.7086614173228346,
                        "duration": 0.25
                    },
                    {
                        "name": "E4",
                        "midi": 64,
                        "time": 182.25,
                        "velocity": 0.7086614173228346,
                        "duration": 0.25
                    },
                    {
                        "name": "A4",
                        "midi": 69,
                        "time": 182.5,
                        "velocity": 0.7086614173228346,
                        "duration": 0.25
                    },
                    {
                        "name": "C5",
                        "midi": 72,
                        "time": 182.75,
                        "velocity": 0.7086614173228346,
                        "duration": 0.25
                    },
                    {
                        "name": "E5",
                        "midi": 76,
                        "time": 183,
                        "velocity": 0.7086614173228346,
                        "duration": 0.25
                    },
                    {
                        "name": "A4",
                        "midi": 69,
                        "time": 183.25,
                        "velocity": 0.7086614173228346,
                        "duration": 0.25
                    },
                    {
                        "name": "C5",
                        "midi": 72,
                        "time": 183.5,
                        "velocity": 0.7086614173228346,
                        "duration": 0.25
                    },
                    {
                        "name": "E5",
                        "midi": 76,
                        "time": 183.75,
                        "velocity": 0.7086614173228346,
                        "duration": 0.25
                    },
                    {
                        "name": "A5",
                        "midi": 81,
                        "time": 184,
                        "velocity": 0.7086614173228346,
                        "duration": 0.25
                    },
                    {
                        "name": "E5",
                        "midi": 76,
                        "time": 184.25,
                        "velocity": 0.7086614173228346,
                        "duration": 0.25
                    },
                    {
                        "name": "A5",
                        "midi": 81,
                        "time": 184.5,
                        "velocity": 0.7086614173228346,
                        "duration": 0.25
                    },
                    {
                        "name": "C6",
                        "midi": 84,
                        "time": 184.75,
                        "velocity": 0.7086614173228346,
                        "duration": 0.25
                    },
                    {
                        "name": "E6",
                        "midi": 88,
                        "time": 185,
                        "velocity": 0.7086614173228346,
                        "duration": 0.25
                    },
                    {
                        "name": "A5",
                        "midi": 81,
                        "time": 185.25,
                        "velocity": 0.7086614173228346,
                        "duration": 0.25
                    },
                    {
                        "name": "C6",
                        "midi": 84,
                        "time": 185.5,
                        "velocity": 0.7086614173228346,
                        "duration": 0.25
                    },
                    {
                        "name": "E6",
                        "midi": 88,
                        "time": 185.75,
                        "velocity": 0.7086614173228346,
                        "duration": 0.25
                    },
                    {
                        "name": "A6",
                        "midi": 93,
                        "time": 186,
                        "velocity": 0.7086614173228346,
                        "duration": 2
                    }
                ],
                "controlChanges": {
                    "7": [
                        {
                            "number": 7,
                            "time": 0,
                            "value": 0.7874015748031497
                        }
                    ]
                },
                "id": 0,
                "channelNumber": 0,
                "isPercussion": false
            }
        ]
    }
];